<?xml version="1.0" encoding="UTF-8" standalone="no"?>
<svg
   xmlns="http://www.w3.org/2000/svg"
   viewbox="0 0 1000 1360"
   width="1000"
   height="1360">
  <path id="outline" style="stroke:#43d5ea;stroke-opacity:1;fill:#05589a;fill-opacity:1"
     d="M 280 1 L 275.40039 6.8007812 L 267.19922 30 L 266.09961 34 L 264.90039 54.5 L 265 59.5 L 265.69922 62.199219 L 266.40039 61.599609 L 266.90039 59 L 267.19922 55.699219 L 266.80078 45.300781 L 267.19922 44.599609 L 267.30078 40.800781 L 267.59961 39.5 L 268.19922 38.900391 L 271.5 36.599609 L 272.19922 36.300781 L 273.19922 36.300781 L 274.09961 36.699219 L 275.09961 38.400391 L 275.80078 38.800781 L 283.30078 38.800781 L 284.90039 38.300781 L 287.90039 35.900391 L 289.59961 35 L 303.19922 35.800781 L 306 33.599609 L 282.19922 34.800781 L 277 33.5 L 273.30078 30 L 274 23.199219 L 273 19.699219 L 274.09961 15.900391 L 276.19922 12.800781 L 280.59961 10.300781 L 281.59961 7.6992188 L 280.69922 5.4003906 L 277.69922 5.0996094 L 278.5 4.0996094 L 285.19922 3.8007812 L 280 1 z M 324.40039 31.300781 L 321.90039 31.699219 L 314.5 34.5 L 310.5 34.300781 L 306.69922 33.099609 L 305.19922 38.599609 L 304.69922 42.900391 L 305.30078 47.900391 L 306.80078 51.199219 L 308.90039 55 L 310.30078 58.800781 L 309.69922 62.199219 L 309.69922 63.5 L 313.40039 65.400391 L 319.30078 70.5 L 322.40039 72.5 L 323.80078 75.099609 L 327.59961 85.400391 L 323.90039 87.900391 L 324.59961 89.300781 L 325.80078 88.5 L 328.09961 87.800781 L 330.40039 87.800781 L 331.40039 88.599609 L 331.90039 90.599609 L 333.19922 92.599609 L 342.09961 102.30078 L 344.80078 106.59961 L 344.80078 111.09961 L 344.09961 114.19922 L 342.30078 115.59961 L 338.09961 117.59961 L 333.5 121.69922 L 331.19922 123.19922 L 328.40039 123.90039 L 316.40039 123.90039 L 307.59961 126.30078 L 305.30078 125.30078 L 304.19922 126.80078 L 303.19922 128.80078 L 302.90039 130.90039 L 303.80078 133 L 305.5 130.59961 L 307 131.09961 L 308.5 132.5 L 310.40039 133 L 310.40039 134.19922 L 307.90039 134.09961 L 304.5 134.80078 L 301.59961 136.09961 L 300 138.09961 L 300.30078 142.90039 L 302.59961 147 L 305.69922 149.90039 L 308.59961 150.90039 L 309.90039 150.5 L 313.5 147 L 315.19922 146.30078 L 319 147 L 322.40039 146.59961 L 328.09961 144.80078 L 331.40039 144.40039 L 331.19922 145 L 330.80078 146.40039 L 330.59961 147 L 333 146 L 337.09961 142.40039 L 339.59961 141.90039 L 338.5 144.69922 L 336.80078 147.69922 L 335.09961 150 L 333.90039 150.90039 L 332.09961 151.09961 L 327.5 152.40039 L 326.09961 153.5 L 326.09961 154.69922 L 326.90039 157.59961 L 325.69922 160.5 L 324.09961 163.69922 L 323.19922 167.5 L 323.5 168.40039 L 325.40039 172.5 L 328.40039 177.69922 L 329.09961 177.69922 L 331.09961 175.5 L 334.59961 173.80078 L 338.40039 173.09961 L 341.09961 173.90039 L 341.09961 175.09961 L 340.80078 177.19922 L 342.30078 179.09961 L 344.30078 180.90039 L 345.59961 182.80078 L 345.59961 185.69922 L 345 189.69922 L 344.09961 193.30078 L 343.30078 195.40039 L 340.90039 196.5 L 338.5 195.69922 L 334.30078 192.80078 L 331.69922 192.09961 L 329.59961 192.30078 L 325.40039 194.19922 L 334.40039 212.59961 L 338.09961 217.09961 L 341.90039 220 L 344.40039 220.90039 L 345.59961 219 L 346.80078 218.19922 L 349.59961 218.90039 L 353.69922 220.90039 L 367.59961 221.19922 L 371.59961 222.09961 L 375.69922 224.69922 L 382.59961 230.59961 L 386.59961 232.19922 L 386.69922 235.90039 L 388.5 241.80078 L 391 247.40039 L 393.69922 249.80078 L 395.30078 250.40039 L 400.40039 253.30078 L 401.5 254.30078 L 401.90039 257.5 L 402.19922 262.5 L 403.5 268.40039 L 407.09961 272.40039 L 414.90039 277.5 L 418.90039 279.09961 L 424.19922 279.80078 L 428.69922 280.30078 L 432.80078 282.69922 L 434.09961 285.09961 L 432.69922 285.69922 L 426.69922 284.30078 L 419.40039 282.69922 L 412.90039 278.19922 L 411.59961 277.5 L 409 277.19922 L 407 276.30078 L 405.30078 274.80078 L 397.80078 263.69922 L 396.30078 258.19922 L 394.80078 256.19922 L 391.80078 253.69922 L 387.40039 248.5 L 376.80078 229.69922 L 374.40039 226.59961 L 373.5 225.90039 L 369.80078 226.09961 L 368 225.80078 L 366.5 224.69922 L 364.59961 226 L 356 225.90039 L 347.40039 228 L 345.30078 230.5 L 341 230.09961 L 333.09961 232.09961 L 328.40039 232.19922 L 319.90039 230.09961 L 315.80078 227.90039 L 311.90039 224.69922 L 309.19922 221.59961 L 307.90039 221 L 305.69922 220.90039 L 303.19922 221.40039 L 300.80078 222.90039 L 298.69922 224.90039 L 297.09961 227.30078 L 295.30078 232.19922 L 292.40039 243.30078 L 288.30078 253.59961 L 287.59961 256.30078 L 287.40039 259.40039 L 287.69922 262.40039 L 289.30078 266.59961 L 290.09961 270.09961 L 290.59961 271.59961 L 291 272.90039 L 292.09961 275.30078 L 293 276.40039 L 295.80078 283.59961 L 296.30078 284.5 L 295.40039 289.40039 L 295.30078 289.69922 L 293 291.90039 L 290.59961 293.69922 L 288.90039 297.69922 L 288.80078 303.09961 L 289.90039 314.5 L 289.59961 319 L 288.19922 315.59961 L 287.5 311.09961 L 287.40039 300.90039 L 288.09961 295.5 L 289.80078 291.59961 L 292.19922 288.69922 L 294.80078 286.40039 L 294.80078 285.09961 L 290.59961 283 L 281.30078 281.19922 L 276.90039 278.90039 L 275.59961 277.09961 L 274.30078 274.59961 L 272.69922 272.40039 L 270.59961 271.40039 L 266 271.59961 L 264.19922 272.40039 L 262.69922 273.90039 L 261.80078 276.5 L 261 282.69922 L 260.09961 285.80078 L 259.90039 288.40039 L 262.19922 288.80078 L 266.5 287.69922 L 269.59961 291.40039 L 269 297.59961 L 266.59961 303.90039 L 264.30078 307.80078 L 263 309.09961 L 261.80078 309.80078 L 260.5 310.09961 L 258.59961 310.19922 L 257.09961 309.40039 L 255.90039 307.69922 L 255.09961 305.90039 L 254.19922 305.19922 L 253.40039 304.69922 L 251.30078 302.19922 L 250 301.5 L 248.19922 301.5 L 247 302 L 245.59961 302.69922 L 244.09961 301.09961 L 243.09961 298.80078 L 241.09961 292.69922 L 243 291.5 L 247.30078 291.09961 L 249.30078 290.09961 L 251.59961 288.30078 L 252.69922 286.59961 L 253 283.30078 L 251.80078 281.40039 L 249.40039 280.69922 L 247.69922 279.90039 L 248.59961 277.5 L 248.59961 276.40039 L 245 273.90039 L 240.5 268.09961 L 237.40039 261.40039 L 238.19922 256.19922 L 238.19922 254.90039 L 229.40039 252.30078 L 196.80078 256.90039 L 180.69922 260.30078 L 178.19922 259.69922 L 177 258.09961 L 175.80078 257.19922 L 159.09961 259.09961 L 150.5 262.5 L 146.5 266.69922 L 144.30078 268.19922 L 140.40039 272.69922 L 136.90039 275.09961 L 135.30078 277.09961 L 135.59961 279.5 L 137 281 L 140.19922 282.59961 L 141.09961 283.90039 L 141.30078 286.19922 L 140.5 288 L 139.5 288.59961 L 138.90039 290.09961 L 134.5 289.09961 L 132.40039 289.09961 L 131.5 290.69922 L 131 293.5 L 128.90039 299 L 128.40039 302.09961 L 128.5 315.59961 L 130.09961 320.69922 L 134.09961 322.69922 L 158.90039 323.59961 L 163.19922 325.19922 L 165.80078 329.09961 L 163.69922 328.19922 L 160 325.80078 L 157.59961 325.19922 L 155.09961 325.30078 L 153.59961 326 L 150.90039 330.19922 L 151.69922 332.19922 L 151.30078 334.40039 L 150.30078 336.30078 L 149.40039 337.69922 L 148.09961 339 L 147.09961 339.59961 L 147.40039 344.80078 L 147.5 347.69922 L 147.19922 350.5 L 146.40039 353.59961 L 144.90039 357.59961 L 144.59961 359.09961 L 144.69922 361.30078 L 145.09961 362.40039 L 145.59961 363.40039 L 146 365 L 147 377.90039 L 146.90039 384.40039 L 145.90039 390.19922 L 143.5 396.19922 L 134.59961 410.40039 L 132.59961 415.80078 L 131.69922 421.90039 L 130.69922 441.30078 L 129.90039 447.59961 L 127.90039 451.5 L 124 450.19922 L 122.40039 449.5 L 117 450.30078 L 111.19922 448.59961 L 100.90039 448.80078 L 97.300781 449.90039 L 93.400391 452.69922 L 94.300781 454.59961 L 94.099609 456.19922 L 93.599609 457.69922 L 93.699219 459.09961 L 94.400391 460.30078 L 98 463.30078 L 92 466.40039 L 90.199219 466.59961 L 91.5 469.40039 L 91.900391 472.59961 L 92 475.69922 L 92.699219 478.40039 L 94.900391 480.90039 L 97.699219 482.30078 L 106.30078 483.5 L 112 485.69922 L 115 486.19922 L 117.90039 486 L 120.59961 485.19922 L 121.59961 484.19922 L 122.30078 483 L 123 482.69922 L 129.59961 493.5 L 131.09961 498.09961 L 130.19922 504.59961 L 128 509.69922 L 127.30078 512.40039 L 127.19922 515.69922 L 128.19922 519.5 L 128.80078 520.59961 L 129.09961 521.19922 L 128.80078 522.09961 L 123.90039 525 L 122.80078 526.40039 L 120.19922 530.59961 L 118 532.5 L 113.40039 534.59961 L 111.19922 536.80078 L 108.80078 541.69922 L 107.5 543 L 100.40039 543.80078 L 98.699219 544.80078 L 96.800781 546.69922 L 96.199219 547.69922 L 95.400391 549.90039 L 94.5 551.09961 L 93.199219 551.69922 L 92 551.80078 L 91.099609 552.30078 L 90.300781 554.09961 L 90.5 556.80078 L 92.300781 558 L 94.599609 558.69922 L 101.69922 562.69922 L 104.59961 565.69922 L 105.09961 566.59961 L 105.40039 567.80078 L 105.30078 569.90039 L 104.69922 570.5 L 103.90039 570.59961 L 103 571.59961 L 100.5 576.09961 L 98 579.19922 L 95.099609 580.80078 L 85.400391 581.09961 L 74.599609 584.80078 L 69.199219 588.90039 L 67.400391 589.69922 L 65.199219 589.69922 L 58.199219 587.69922 L 59.099609 591.69922 L 58.699219 593.40039 L 54.599609 594.59961 L 54.300781 591.80078 L 52.5 590.80078 L 48.300781 590.09961 L 47.800781 589.5 L 46.599609 587.40039 L 45.900391 586.59961 L 45 586.5 L 41.599609 587.19922 L 37.900391 585.69922 L 34.400391 582.90039 L 30.900391 581.19922 L 27.199219 583.19922 L 28.5 584.30078 L 32.599609 588.5 L 34 590.90039 L 29.699219 589.80078 L 26.199219 588.80078 L 21.800781 590 L 20.199219 590.80078 L 18 592.5 L 15.800781 593.40039 L 11.400391 594.19922 L 9.5996094 595.5 L 9.1992188 597.09961 L 11.699219 599 L 13.099609 602.40039 L 13 606 L 10.5 608.40039 L 10.400391 610.30078 L 11.5 610.69922 L 14.699219 610.59961 L 15.900391 611.19922 L 18.400391 613.09961 L 19.400391 614.19922 L 18 619.19922 L 20.5 622.40039 L 27.900391 625.59961 L 26.599609 629.5 L 26 632 L 26.5 634.19922 L 33.699219 644.19922 L 38.099609 649.30078 L 38.900391 655 L 39.400391 658.19922 L 39 661.69922 L 38.199219 665.40039 L 38 668.59961 L 39.699219 670.59961 L 39 672.09961 L 38.699219 675.90039 L 38.099609 678.09961 L 37 679.59961 L 34.300781 681.59961 L 33.099609 682.69922 L 27.599609 693 L 25.300781 695.80078 L 24.099609 697.69922 L 23.199219 701.19922 L 22.900391 705.09961 L 23.699219 708.30078 L 26.199219 709.69922 L 31.699219 706 L 34.199219 706.80078 L 33.300781 707.30078 L 30.800781 709.40039 L 33.099609 711.5 L 31.5 713.69922 L 25.300781 717.09961 L 15.199219 725 L 13.699219 726.69922 L 11.599609 731.09961 L 10.300781 732.59961 L 8.3007812 732.80078 L 6.8007812 731.40039 L 5.5996094 729.80078 L 4 728.90039 L 1 730.5 L 1.5996094 734.59961 L 3.3007812 739.5 L 3.4003906 743.90039 L 4.9003906 743.59961 L 7.6992188 742.19922 L 9.1992188 741.80078 L 10.699219 742 L 13.599609 742.90039 L 17.5 742.5 L 17.699219 743.40039 L 17 744.80078 L 16.599609 746.30078 L 16.800781 748.80078 L 17 750.09961 L 17.900391 751 L 20.400391 752.69922 L 24 753.90039 L 23.800781 754.59961 L 23.199219 755.5 L 23 756.69922 L 23.900391 760.19922 L 23.900391 761.59961 L 23.199219 763.40039 L 22 764.80078 L 19.599609 764.59961 L 18.099609 765.5 L 17.099609 767.19922 L 17.199219 768.69922 L 17.400391 770.30078 L 16.900391 772.30078 L 15.300781 773.80078 L 13.699219 773.40039 L 14.099609 775.59961 L 14.900391 777 L 16 777.80078 L 16.699219 778.80078 L 16.5 781.09961 L 16.300781 781.40039 L 16.300781 782 L 16.400391 782.30078 L 18.199219 783.30078 L 18.300781 784.90039 L 17.900391 786.80078 L 18.300781 788.19922 L 19.800781 788.40039 L 24.099609 787.19922 L 25.900391 787.30078 L 28 789.40039 L 34.599609 799.59961 L 33.099609 800.5 L 34.400391 803 L 36.599609 804.19922 L 44.199219 804.40039 L 44.400391 805.40039 L 43.599609 806.90039 L 42.400391 808.40039 L 42.400391 809 L 40 810.5 L 36.5 813.40039 L 34.5 816.5 L 36.400391 818.80078 L 35.5 820.09961 L 35.599609 820.90039 L 36.5 821.30078 L 37.800781 821.40039 L 36.900391 822.90039 L 37.800781 823.69922 L 38.699219 825.59961 L 39.599609 826.30078 L 40.699219 826.40039 L 44.400391 825.19922 L 44.900391 824.90039 L 45.400391 825.19922 L 47 826 L 51.699219 827.09961 L 53.699219 827.19922 L 52.5 828.40039 L 52.199219 829.80078 L 52.599609 831.30078 L 53.099609 833.09961 L 54.099609 834.59961 L 54.900391 834.80078 L 55.300781 835.40039 L 55.199219 838.19922 L 54.400391 842.19922 L 53.699219 844.5 L 53.800781 846.5 L 57.599609 853.09961 L 57.699219 854.19922 L 57.800781 855.5 L 56.5 857 L 53.599609 857.5 L 52.099609 857.19922 L 50.900391 856.69922 L 49.699219 856.59961 L 48.199219 857.5 L 47.099609 858.80078 L 46.400391 860.5 L 46.199219 862.19922 L 46.599609 863.69922 L 44.599609 865.5 L 40 866.80078 L 37.699219 867.90039 L 36.599609 869.59961 L 34.199219 871.30078 L 33 872.80078 L 34.5 874.40039 L 35.099609 876.30078 L 35 878.30078 L 34.400391 879.90039 L 33.599609 880.40039 L 31.400391 880.59961 L 30.5 881.19922 L 30.300781 881.69922 L 29.900391 883.59961 L 29.699219 884.5 L 30.800781 885.40039 L 31.099609 886.40039 L 30.800781 887.5 L 29.800781 888.69922 L 29.099609 891.19922 L 28.599609 893.5 L 27.900391 898.30078 L 28.099609 898.40039 L 29 898.40039 L 28.599609 898.90039 L 27.5 900.90039 L 28.699219 901.59961 L 29.400391 903 L 30.099609 906.5 L 29.800781 908.40039 L 30.300781 909.80078 L 32.199219 912.59961 L 33.800781 917.40039 L 34.699219 918.90039 L 35.800781 916.59961 L 37.699219 919.59961 L 41.300781 928.19922 L 43 930 L 46.699219 931.59961 L 48.300781 932.69922 L 48.800781 933.59961 L 49.900391 936.5 L 50 937.09961 L 50.900391 937.09961 L 52.5 936.09961 L 53.5 936.19922 L 55.300781 937.30078 L 58.400391 940.30078 L 60.300781 941.5 L 62.199219 942 L 67.400391 942 L 70.699219 943 L 71.199219 943 L 71.699219 943.69922 L 71.5 943.90039 L 71.5 945.30078 L 71.300781 945.40039 L 70.800781 949.09961 L 70.800781 950.30078 L 71.099609 951 L 71 951.69922 L 70 952.59961 L 69.900391 954.09961 L 70.099609 955.5 L 70.699219 956.69922 L 71.400391 957.80078 L 70.5 957.40039 L 70 957.59961 L 69.599609 958.5 L 70.400391 959.30078 L 70.599609 959.69922 L 62.599609 964.90039 L 60.900391 967.30078 L 61.099609 967.80078 L 61.800781 968.30078 L 62.400391 968.90039 L 62.5 970.09961 L 62.199219 970.80078 L 61.400391 972 L 60.300781 974.30078 L 57.5 977.80078 L 55.800781 980.40039 L 55.199219 982.19922 L 55.199219 987.59961 L 55 989.19922 L 54.300781 994.59961 L 54.599609 999.69922 L 54.599609 1000.9004 L 55.599609 1001 L 56.699219 1000.8008 L 58.800781 999.30078 L 59.699219 999 L 60.900391 999.19922 L 70.900391 1004.1992 L 72.699219 1006 L 73.400391 1007.4004 L 73.699219 1008.8008 L 73.699219 1009.6992 L 73.5 1009.8008 L 74.300781 1010.9004 L 79.599609 1016.5996 L 79.900391 1017.5996 L 79.5 1018.9004 L 77.5 1019 L 76.900391 1020.5 L 77.599609 1022.5 L 79.400391 1024.6992 L 86.699219 1031.6992 L 86.800781 1032.4004 L 86.599609 1034.0996 L 86.699219 1034.8008 L 87.300781 1035.1992 L 88.800781 1035.8008 L 89.300781 1036.3008 L 90.199219 1039.3008 L 90.599609 1040.4004 L 90.800781 1041.6992 L 91.099609 1042.3008 L 91.599609 1042.3008 L 93.099609 1041.3008 L 93.5 1041.3008 L 94.199219 1043.9004 L 93.699219 1046.0996 L 93.300781 1048.0996 L 94.699219 1050.4004 L 96 1051 L 100.90039 1051 L 105.09961 1052.5996 L 106.5 1052.3008 L 108.40039 1049.8008 L 108 1047 L 107.09961 1044.3008 L 107.80078 1042 L 108.90039 1041.6992 L 113.40039 1042.8008 L 116.59961 1042.5 L 117.80078 1042.5996 L 124.59961 1046.5 L 126.90039 1046.5996 L 126.90039 1052.5 L 128.09961 1057.0996 L 130.5 1059 L 133.90039 1056.8008 L 134 1056 L 133.69922 1055.0996 L 133.59961 1054.1992 L 134.59961 1053.1992 L 135.19922 1053.3008 L 139.30078 1056.3008 L 141.09961 1057.1992 L 142.80078 1057.8008 L 152.09961 1057.9004 L 155.09961 1059.3008 L 155.80078 1059.4004 L 156.40039 1058.6992 L 157.5 1056.4004 L 158.19922 1055.5 L 159.19922 1055.1992 L 161.40039 1054.9004 L 162.19922 1054.5 L 162.80078 1053.5996 L 163.59961 1051.1992 L 164.09961 1050.4004 L 165.90039 1049.3008 L 166.30078 1049.1992 L 168.5 1048.5996 L 170.59961 1048.6992 L 171 1050.5996 L 175.69922 1050.9004 L 177.69922 1051.5996 L 178.40039 1054.0996 L 177.59961 1054.5996 L 177.40039 1055 L 177.19922 1055.5 L 178.69922 1057.0996 L 181.19922 1061.0996 L 182.59961 1062.9004 L 185 1064.4004 L 189.69922 1065.3008 L 192.09961 1066.5 L 192.90039 1067.5 L 194 1069.6992 L 195 1070.5996 L 196.5 1070.9004 L 197.80078 1070.5996 L 199.09961 1070 L 200.5 1069.6992 L 201.69922 1069.9004 L 204 1070.8008 L 205 1070.9004 L 206.30078 1070.5996 L 208.90039 1069.1992 L 210.09961 1068.8008 L 219.19922 1071.5 L 225.40039 1070.8008 L 227.30078 1071.0996 L 244.59961 1080.3008 L 255.30078 1082.5 L 256.5 1083.6992 L 256.5 1083.8008 L 254.19922 1086.3008 L 250.90039 1092.8008 L 245.90039 1106.4004 L 244.59961 1108.6992 L 243.90039 1109.3008 L 239.90039 1111.5 L 239 1111.5 L 238.69922 1111.9004 L 238.19922 1112.4004 L 237.69922 1113.3008 L 237.5 1114.8008 L 237.19922 1115.6992 L 236.59961 1116.3008 L 235.80078 1116.5996 L 232.69922 1116.5996 L 231.5 1117 L 230.90039 1118.5 L 230.80078 1121.6992 L 230.30078 1123 L 229.09961 1124.5 L 227.69922 1125.9004 L 226.40039 1126.8008 L 223.40039 1130.4004 L 221.69922 1131.8008 L 219.90039 1132.4004 L 218.69922 1133.3008 L 214.09961 1140.5 L 213.19922 1145.9004 L 213.09961 1151.5996 L 214.40039 1155.0996 L 214.40039 1156.1992 L 211.69922 1158.4004 L 210.40039 1159.6992 L 209.80078 1161.1992 L 209.59961 1164.3008 L 209.09961 1165.9004 L 208.40039 1167 L 207.59961 1168.5996 L 207 1170.4004 L 206.30078 1174.8008 L 206.09961 1176.9004 L 206.5 1178.9004 L 207.19922 1181 L 207.69922 1183.1992 L 207.59961 1185.5 L 206.09961 1187.9004 L 204.09961 1189 L 202.30078 1190.4004 L 201.59961 1193.8008 L 201.40039 1197.1992 L 200.69922 1199.9004 L 199.5 1202.3008 L 192.69922 1212 L 191.90039 1214 L 191.69922 1216.3008 L 191.19922 1217.5996 L 190.40039 1218.5996 L 189.59961 1220.0996 L 188.90039 1222.5 L 188.19922 1225.6992 L 188.59961 1232.5 L 193.30078 1240.8008 L 193.5 1245.8008 L 192.5 1247.8008 L 189.59961 1250.9004 L 189 1253.0996 L 189.09961 1255.6992 L 188.90039 1256.4004 L 188.19922 1258.0996 L 187.80078 1258.9004 L 187.09961 1259.5996 L 186.69922 1260.3008 L 186.59961 1260.9004 L 186.80078 1261.8008 L 186.69922 1262.5 L 187.30078 1265.5 L 187.09961 1267.3008 L 185.59961 1268.0996 L 185 1268.9004 L 183.40039 1274.1992 L 183.09961 1276.4004 L 184.5 1282.0996 L 184.40039 1284.6992 L 183.80078 1285.8008 L 182 1287.6992 L 181.59961 1288.6992 L 181.90039 1292.1992 L 182.30078 1293.9004 L 182.69922 1294.6992 L 184.30078 1295.5 L 185.80078 1297.5996 L 188.19922 1302.5 L 188.90039 1303.3008 L 189.59961 1303.9004 L 190.09961 1304.8008 L 190.40039 1306.3008 L 190.09961 1306.9004 L 189.69922 1308.5 L 195.19922 1306.9004 L 197.69922 1306.5996 L 196.30078 1310.5996 L 195.09961 1311.8008 L 192.30078 1311.6992 L 197.90039 1314.6992 L 200.30078 1315 L 209.30078 1313.1992 L 211.40039 1312 L 213.09961 1309.9004 L 215.09961 1306.8008 L 216.59961 1307.5996 L 223.69922 1308 L 224.30078 1308.6992 L 224.69922 1310.1992 L 224.90039 1311.6992 L 225.19922 1312.4004 L 239.30078 1312.4004 L 244.19922 1311.3008 L 245.30078 1310.5996 L 245.80078 1309.9004 L 246.19922 1309.0996 L 247.09961 1308 L 248 1307.3008 L 250.40039 1306 L 252.40039 1305.4004 L 253.09961 1304.6992 L 253.69922 1303.9004 L 254.19922 1303.5 L 260.09961 1302.5 L 262.09961 1302.5 L 264.90039 1303.4004 L 266.09961 1303.5 L 266.69922 1304.1992 L 267.30078 1305.8008 L 268.09961 1307.3008 L 269.09961 1308 L 273.30078 1309.0996 L 280.19922 1309.1992 L 283.59961 1308.5996 L 283.69922 1307.8008 L 285 1305.0996 L 288.30078 1302.8008 L 291.59961 1302.5 L 293.30078 1304.0996 L 294.59961 1306.3008 L 295.80078 1307.8008 L 297.19922 1307.3008 L 297.90039 1306 L 298.09961 1304.8008 L 298 1303.6992 L 298.09961 1302.5996 L 298.09961 1302 L 297.80078 1301.4004 L 297.59961 1300.5996 L 297.90039 1299.6992 L 298.30078 1299.4004 L 298.90039 1299.1992 L 299.30078 1299.1992 L 299.40039 1299.4004 L 299.5 1300.4004 L 300.19922 1300.8008 L 300.80078 1297 L 299.80078 1296.9004 L 298.09961 1296.0996 L 296.59961 1295.9004 L 291.30078 1296.8008 L 289.69922 1297.5996 L 288.19922 1298.6992 L 286.5 1299.5 L 284.59961 1299.5996 L 282.40039 1298.3008 L 279.59961 1296.1992 L 279 1296.0996 L 277.30078 1295.5 L 278 1293.6992 L 277.69922 1292.3008 L 277.30078 1291.1992 L 277.40039 1290 L 278.5 1288.6992 L 281.19922 1287.1992 L 282.40039 1286.0996 L 283.19922 1282.9004 L 283.69922 1281.6992 L 285.19922 1279.5 L 286 1279 L 287.30078 1279.0996 L 293.09961 1277.9004 L 294.80078 1277 L 293.80078 1274.5 L 295.5 1273.5 L 298.19922 1273.5996 L 300.19922 1274.5996 L 300.40039 1275.6992 L 300.5 1277.8008 L 300.90039 1279.8008 L 301.90039 1280.5996 L 303.30078 1279.6992 L 303.80078 1276.1992 L 304.80078 1275.0996 L 306.19922 1275.5996 L 307.30078 1277.1992 L 308.09961 1279.0996 L 309 1280.4004 L 310.09961 1280.5996 L 311.30078 1280.4004 L 312.30078 1280.5996 L 313.09961 1282.1992 L 312.80078 1282.8008 L 311.30078 1285 L 311 1286.0996 L 311.40039 1287.4004 L 312.30078 1288.5 L 312.80078 1290.8008 L 318.5 1290.6992 L 317.59961 1289.6992 L 318.59961 1286.5 L 321.5 1286.5996 L 325.09961 1288.6992 L 327.90039 1291.4004 L 325.90039 1291.9004 L 325.90039 1293 L 327.5 1294.5996 L 330.69922 1297 L 333.40039 1297.6992 L 337.59961 1297.3008 L 341.59961 1296 L 343.30078 1294.0996 L 345.40039 1293.3008 L 357.5 1294.6992 L 363.5 1294.6992 L 366 1294.4004 L 365.90039 1292.9004 L 363.5 1289.1992 L 362.59961 1286.8008 L 362 1284.5 L 361.19922 1282.3008 L 359.80078 1280.1992 L 357.80078 1278.9004 L 353.5 1277.0996 L 351.5 1275.6992 L 347.90039 1271.9004 L 347.09961 1270.3008 L 351.40039 1271 L 362.69922 1279.1992 L 365.69922 1279.8008 L 366.5 1280.1992 L 367.09961 1281.5996 L 367.80078 1285.1992 L 368.19922 1285.9004 L 378.69922 1292.8008 L 380.69922 1293.4004 L 385.40039 1293.5 L 387.40039 1293.9004 L 393.30078 1296.9004 L 396.69922 1297.3008 L 397.80078 1298 L 398.80078 1299.3008 L 399.19922 1300.6992 L 399.59961 1302.3008 L 400.30078 1304 L 402.09961 1306.1992 L 403.69922 1307.0996 L 408.30078 1308 L 409.69922 1308.6992 L 412.59961 1310.1992 L 417.19922 1313.5 L 421.80078 1314.6992 L 423.09961 1311.6992 L 425.5 1308.9004 L 427.09961 1308.0996 L 428.69922 1307.9004 L 430.19922 1308.5 L 431.5 1309.9004 L 431.90039 1311.8008 L 431.69922 1313.6992 L 432.09961 1315.5 L 434.30078 1316.5996 L 435.19922 1316.5 L 436.5 1315.6992 L 437.09961 1315.5 L 440.30078 1316.6992 L 443.59961 1317 L 445.19922 1316.6992 L 446.5 1315.5996 L 446.80078 1318.3008 L 448 1319.8008 L 449.30078 1321.1992 L 450.30078 1323.3008 L 450.30078 1324.3008 L 450.5 1325.1992 L 451.69922 1326 L 452.69922 1325.5 L 453.59961 1324.6992 L 454.90039 1324.0996 L 460.19922 1332 L 461.19922 1333.9004 L 460.69922 1335.5996 L 458.19922 1337.5 L 459.40039 1338.9004 L 459.69922 1340.5996 L 459.80078 1342.3008 L 460.40039 1343.8008 L 461.40039 1344.9004 L 462.19922 1344.8008 L 463 1344.1992 L 464.40039 1343.5 L 465 1343.5996 L 466.09961 1344.3008 L 466.59961 1344.3008 L 467.09961 1343.9004 L 468.40039 1342.5 L 473.19922 1341.5996 L 475.19922 1342.6992 L 475.09961 1345.5996 L 473.09961 1351.5996 L 473.40039 1352.5996 L 473.40039 1353.5996 L 473.19922 1354.5996 L 472.59961 1355.1992 L 471.19922 1355.5996 L 470.80078 1355.9004 L 469.80078 1357.6992 L 469.30078 1358.6992 L 469.80078 1359 L 478.5 1357.9004 L 480.80078 1357 L 485.69922 1354 L 487.80078 1352.0996 L 489.80078 1349.4004 L 492.19922 1344.5 L 492.90039 1343.5 L 494 1342.8008 L 496.30078 1342 L 497.19922 1341.3008 L 499 1338.9004 L 500.59961 1335.6992 L 501.59961 1332.0996 L 501.59961 1328.5996 L 501.09961 1326.5996 L 500.5 1325.1992 L 499.59961 1324.0996 L 498.09961 1323.3008 L 499.19922 1316.9004 L 499.30078 1315.4004 L 498.59961 1313.5996 L 497.59961 1311.8008 L 497.5 1310.4004 L 499.09961 1309.8008 L 500.90039 1309.4004 L 501.80078 1309.0996 L 502.19922 1309.4004 L 502.59961 1310.9004 L 502.5 1311.5 L 502 1312.3008 L 501.59961 1313.3008 L 501.80078 1314.6992 L 502.30078 1315.5 L 503.19922 1316.0996 L 504.90039 1316.9004 L 509.59961 1317.5996 L 510.80078 1317.4004 L 512.19922 1316.3008 L 514.40039 1313.1992 L 515.90039 1312.0996 L 518.59961 1312.0996 L 532.90039 1317.5996 L 533.40039 1318.0996 L 533.69922 1318.9004 L 534.30078 1319.6992 L 535.19922 1320 L 538.40039 1319.5996 L 542.80078 1317.5996 L 544.40039 1317.0996 L 545.90039 1317.1992 L 547 1317.9004 L 549.5 1319.8008 L 548.59961 1320.9004 L 545.09961 1323.3008 L 545.80078 1324.5996 L 551.40039 1327.1992 L 556.90039 1333.0996 L 557.19922 1333.8008 L 557.19922 1334.9004 L 557 1336 L 556.59961 1336.6992 L 556.40039 1336.6992 L 557.5 1338.9004 L 559 1339.8008 L 570.40039 1340 L 572.5 1339.3008 L 579.59961 1334.4004 L 582.30078 1333.5996 L 584.69922 1334.5996 L 584.40039 1339 L 587 1339.3008 L 589.40039 1338.1992 L 591 1336.5 L 592.40039 1334.5996 L 594.5 1332.5996 L 596.5 1331.9004 L 601.30078 1331.8008 L 603 1331.0996 L 604 1329.5 L 603.5 1328.3008 L 602.40039 1327.5 L 601 1327.0996 L 606.19922 1321.1992 L 608.59961 1320.5996 L 611.30078 1321 L 613.80078 1321.8008 L 618.90039 1320.9004 L 621.19922 1320 L 623.19922 1317.8008 L 623.80078 1316.3008 L 624.59961 1312.5 L 625.40039 1310.8008 L 628.40039 1308.1992 L 628.80078 1307.6992 L 630.80078 1307.8008 L 635.5 1308.6992 L 644.40039 1308.8008 L 650.5 1310 L 651.69922 1309.6992 L 652.69922 1306.9004 L 654 1306.1992 L 663.09961 1304.3008 L 688.09961 1305.4004 L 689 1305.1992 L 692.09961 1301.1992 L 692.5 1300.1992 L 692.59961 1298.6992 L 692.40039 1294.4004 L 692.09961 1293.5 L 691.59961 1293.0996 L 690.69922 1292.1992 L 689.90039 1291.1992 L 689.5 1290.3008 L 689.30078 1288.9004 L 691 1288.1992 L 693.59961 1286 L 694.59961 1285.5 L 696.19922 1284.8008 L 696.40039 1284.6992 L 696.09961 1285.4004 L 695.80078 1287.1992 L 695.40039 1288.4004 L 694.69922 1289.4004 L 694.40039 1290.5 L 695 1292.3008 L 696.09961 1293.3008 L 697.19922 1293.0996 L 699.69922 1291.8008 L 702 1291.5 L 708.30078 1292.8008 L 710.19922 1292.5 L 714.5 1290.9004 L 716.19922 1291.1992 L 716.80078 1292.1992 L 717.90039 1295.5996 L 718.5 1297 L 719.40039 1298 L 722.59961 1300.5996 L 724.09961 1301.4004 L 726.40039 1301.4004 L 728.69922 1301 L 730.40039 1300.1992 L 735.19922 1295.9004 L 737.30078 1294.8008 L 741.19922 1293.9004 L 745 1293.9004 L 751.19922 1295.5 L 753 1295.1992 L 751.90039 1298.0996 L 753.59961 1300.1992 L 756.40039 1302 L 758.59961 1304.0996 L 755.59961 1305.5996 L 754.30078 1309.4004 L 754.90039 1313.3008 L 757.59961 1315.5 L 759.19922 1315.8008 L 760.30078 1316.1992 L 761.19922 1316.9004 L 766.09961 1322.4004 L 771.5 1326.5 L 772.69922 1326.9004 L 773.59961 1326.5996 L 774.5 1326.0996 L 775.59961 1326.0996 L 776.69922 1326.6992 L 777.30078 1327.3008 L 778 1327.6992 L 779.09961 1327.6992 L 779.90039 1327 L 783 1323.3008 L 783 1322 L 782.69922 1321 L 782.30078 1320.1992 L 782.09961 1319.3008 L 782 1318.3008 L 782 1315.5 L 782.30078 1315 L 783.30078 1312.4004 L 783.19922 1312.3008 L 783.09961 1308.5996 L 783.40039 1308.6992 L 785.09961 1306.4004 L 785.19922 1306 L 786.5 1302.8008 L 786.80078 1302.4004 L 787 1300.5 L 787.09961 1298.5 L 786.80078 1296.4004 L 785.90039 1294.0996 L 783.80078 1290.4004 L 782.40039 1288.8008 L 781.09961 1287.8008 L 779.40039 1287.5 L 776.59961 1288.6992 L 775 1289 L 768.90039 1287.9004 L 767.19922 1286.0996 L 769.19922 1282.9004 L 769.90039 1281.8008 L 770.09961 1280.6992 L 770.09961 1279.6992 L 770.40039 1278.5996 L 770.90039 1277.4004 L 778 1266 L 777.5 1265.5 L 775.09961 1262 L 771.40039 1253.4004 L 769.59961 1251.5996 L 768.69922 1251.0996 L 766.5 1248.9004 L 763.90039 1247.3008 L 763 1246 L 762.40039 1244.3008 L 762.09961 1242.3008 L 760.5 1238.6992 L 752.80078 1230.5996 L 751.80078 1229 L 750.80078 1227.0996 L 750.30078 1224.9004 L 750.5 1222.6992 L 751.19922 1221.5 L 751.90039 1221.3008 L 752.59961 1221.3008 L 753.19922 1221 L 754.80078 1218.5996 L 755.19922 1218.0996 L 759.59961 1215 L 761 1213.4004 L 763 1210.1992 L 764 1209.0996 L 765.59961 1208.1992 L 771.59961 1207.0996 L 771.5 1206.6992 L 773.19922 1205.3008 L 776.69922 1203.4004 L 780.69922 1199.4004 L 782.5 1198.1992 L 793.80078 1193.6992 L 808.80078 1191.0996 L 812.40039 1189 L 823.09961 1179.6992 L 824.59961 1177.0996 L 825.19922 1173.5996 L 825.40039 1172.8008 L 825.90039 1172 L 826.40039 1170.8008 L 826.59961 1169.0996 L 826.40039 1164.5 L 826.59961 1162.9004 L 827.09961 1161.4004 L 828.59961 1158.3008 L 828.90039 1156.6992 L 828.69922 1155.3008 L 827.69922 1153.6992 L 827.19922 1150.6992 L 826.90039 1150 L 826.80078 1149.4004 L 827.40039 1148.3008 L 828.40039 1147.3008 L 832 1146 L 835.59961 1145.5 L 846.90039 1148.6992 L 848.80078 1149.6992 L 850.5 1151 L 852.19922 1153.5996 L 856.69922 1155.5996 L 856.90039 1155.9004 L 857.90039 1151.5 L 858.80078 1149.5996 L 859.19922 1149.6992 L 861.40039 1149.3008 L 862.30078 1148.9004 L 863.19922 1148 L 863.69922 1147.3008 L 865.59961 1143.1992 L 866.30078 1141 L 866.59961 1138.6992 L 866.69922 1135.9004 L 866.09961 1130.5996 L 866.40039 1128.5996 L 867.80078 1127.1992 L 866.5 1126.5996 L 865.90039 1126.0996 L 864.80078 1123.8008 L 864.19922 1124 L 864.5 1122.4004 L 867.69922 1115.5 L 865.59961 1113.3008 L 860.30078 1102.8008 L 857.80078 1098.8008 L 856.30078 1098 L 852.19922 1097.3008 L 850.19922 1096.4004 L 848.30078 1094.5 L 846.59961 1091.9004 L 845.40039 1088.9004 L 845.19922 1085.8008 L 843.19922 1086 L 841.30078 1085 L 839.5 1083.5 L 837.59961 1082.3008 L 835.09961 1081.8008 L 833.59961 1082.5 L 832.5 1084.3008 L 831.40039 1087.1992 L 828.90039 1086 L 825.40039 1083.5 L 822.30078 1080.5 L 820.69922 1078 L 820.69922 1073.3008 L 819.5 1070.4004 L 814.80078 1065.6992 L 811.5 1061.3008 L 810.19922 1060.0996 L 808 1059.3008 L 801.40039 1059 L 798.40039 1057.1992 L 796.59961 1054.4004 L 795.19922 1051.0996 L 785 1037.1992 L 783.59961 1036.4004 L 780.19922 1032.3008 L 779.69922 1030.6992 L 779.5 1029.0996 L 778.90039 1027.6992 L 777 1026.9004 L 774 1023.6992 L 772.40039 1022.4004 L 770.5 1021.4004 L 766.40039 1020.3008 L 764.90039 1020.6992 L 765.40039 1022.9004 L 763.30078 1023.1992 L 756.90039 1022.1992 L 754.80078 1021.4004 L 753 1019.6992 L 749.5 1011.6992 L 747.30078 1009.4004 L 742.30078 1007 L 740.09961 1005.1992 L 738.90039 1002.8008 L 738.30078 1000.0996 L 738 994.59961 L 737.90039 991.80078 L 737.09961 991.09961 L 735.90039 991.30078 L 734.69922 990.90039 L 733.5 989.69922 L 732.69922 988.40039 L 732 986.90039 L 731.30078 984.90039 L 730.80078 982.90039 L 730.30078 979.19922 L 729.59961 977.40039 L 728.40039 976.09961 L 725.80078 974.69922 L 724.69922 973.30078 L 724.80078 972.90039 L 725.30078 971.59961 L 724.40039 971.19922 L 724.19922 970.90039 L 725.09961 968.90039 L 725 966.59961 L 724.09961 964.90039 L 722.59961 964.09961 L 719 962.30078 L 717.30078 961.19922 L 715.80078 959.80078 L 713.5 956.5 L 712.40039 954.40039 L 711.80078 952.59961 L 713.09961 950.09961 L 717.59961 948.09961 L 719.40039 946.40039 L 719.69922 943.59961 L 719.80078 940.09961 L 720.40039 937.69922 L 722.59961 938.40039 L 723.40039 935.69922 L 725.90039 931.09961 L 726.80078 928.5 L 727.09961 925.19922 L 726.40039 924 L 724.90039 923.40039 L 720.40039 920.80078 L 720.59961 918.90039 L 721.30078 916.69922 L 721 914.19922 L 719.19922 912.40039 L 715.19922 912 L 713.5 910.40039 L 713.40039 910.40039 L 697 901.5 L 696.59961 900.40039 L 696.59961 898.90039 L 696.40039 897.19922 L 695.40039 895.5 L 693.80078 894.09961 L 692.09961 893.09961 L 690.5 891.69922 L 689.59961 889.09961 L 689.5 886.59961 L 690.30078 882.69922 L 690 880.19922 L 689.09961 878.09961 L 687.90039 876.19922 L 685.19922 873.30078 L 679.90039 869.90039 L 678.69922 867.90039 L 680.09961 865.90039 L 681.19922 865.09961 L 682 864.30078 L 682.19922 862.09961 L 681.80078 859.69922 L 680.90039 858.19922 L 678.40039 855.59961 L 681.09961 855.80078 L 686.30078 856.19922 L 688.40039 857.59961 L 689.09961 859.19922 L 689 862.09961 L 689.5 863.5 L 690.69922 864.59961 L 692.30078 865 L 695.40039 865.09961 L 696.19922 865.59961 L 696.5 866.19922 L 696.5 867 L 696 867.90039 L 695.69922 868 L 695.09961 868.5 L 695 868.90039 L 695.09961 869.30078 L 695.40039 869.69922 L 697.30078 871.59961 L 697.80078 872.19922 L 698.19922 873.30078 L 698.40039 874.30078 L 698.5 875.19922 L 699.80078 879.90039 L 700.90039 881.59961 L 702.80078 881.80078 L 704.30078 880.69922 L 704.30078 879.19922 L 703.69922 877.40039 L 703.30078 875.30078 L 703.69922 872.30078 L 704.30078 870.69922 L 706.40039 867.90039 L 706.69922 865.19922 L 707.59961 863.90039 L 708.80078 863 L 710 861.69922 L 713.40039 855.59961 L 714.59961 854.40039 L 717.80078 852.59961 L 719.09961 851.40039 L 719.5 851.19922 L 720.5 851.19922 L 720.90039 851 L 721.09961 850.40039 L 721.09961 849.69922 L 720.90039 848.80078 L 721.19922 848 L 721.40039 847.19922 L 721.80078 846.30078 L 725.59961 843 L 730 841.69922 L 738.09961 841.09961 L 744 842.19922 L 745.40039 842 L 746.59961 840.80078 L 749 837.09961 L 750.40039 835.69922 L 752.19922 835.09961 L 753.90039 834.90039 L 755.90039 835.19922 L 756.5 835 L 758.09961 833.90039 L 759 833.69922 L 760 834 L 770 840.19922 L 773.80078 840.40039 L 777 837.19922 L 778.59961 835.30078 L 779.30078 832.19922 L 780 825.19922 L 780.90039 824.59961 L 781.80078 824.40039 L 782.69922 824.59961 L 783.5 825.19922 L 784.5 825.5 L 785.5 825.59961 L 786.5 825.5 L 787.5 825.19922 L 790.59961 824.19922 L 796.30078 824.5 L 799 822.5 L 800.59961 819.59961 L 804.19922 809.90039 L 806.30078 810.09961 L 808.09961 811.40039 L 809.90039 812.19922 L 812.19922 811 L 813.30078 807.5 L 814 806.40039 L 818 803.5 L 818.69922 802.80078 L 818.80078 802.19922 L 819.09961 802 L 820.40039 802.5 L 821 803.09961 L 822.5 805.69922 L 823.19922 806.59961 L 825.69922 807.80078 L 827.69922 807.30078 L 829.5 805.59961 L 831.40039 803.30078 L 832.5 802.59961 L 833.09961 801.80078 L 833.19922 800.80078 L 832.59961 799.40039 L 834.40039 798.09961 L 835.90039 796.19922 L 836.30078 793.90039 L 835 791.19922 L 839.5 788.5 L 844.40039 787.59961 L 854.19922 787.59961 L 856.30078 787.19922 L 860.40039 785.69922 L 862.80078 785.40039 L 867.80078 786 L 869.80078 785.59961 L 872.90039 783.59961 L 873.59961 783.59961 L 874.19922 783.40039 L 874.90039 782.30078 L 875 781.40039 L 874.69922 780.19922 L 874.59961 778.69922 L 875.09961 777.09961 L 876.09961 775.80078 L 877 775.80078 L 878 776.09961 L 879.40039 775.90039 L 880.5 775.09961 L 882.19922 772.90039 L 883.40039 772.09961 L 885.5 771.59961 L 889.5 772.19922 L 891.59961 772 L 908.5 764.19922 L 909.90039 762.90039 L 911.80078 759.90039 L 913 758.80078 L 916.90039 757.90039 L 925.5 758.59961 L 928.69922 755.90039 L 929.30078 751.59961 L 926.40039 749.90039 L 922.40039 748.69922 L 919.59961 746 L 919.69922 744.19922 L 920.69922 743.5 L 920.80078 743.19922 L 918.69922 742.30078 L 915 741.80078 L 913.69922 741 L 914.90039 739.19922 L 916.40039 734.19922 L 919.09961 731.5 L 922.5 731 L 926.59961 732.30078 L 927.40039 733.09961 L 928 734 L 928.69922 735 L 929.90039 735.59961 L 931.09961 735.69922 L 934.09961 734.30078 L 938.09961 734.5 L 939.30078 733.90039 L 940.19922 731.5 L 940.90039 732.90039 L 941.09961 734 L 941.5 735 L 942.5 736.40039 L 943.80078 737.40039 L 946.80078 738.09961 L 948.09961 739.19922 L 949.40039 740.80078 L 950.30078 742.19922 L 950.59961 743.80078 L 950.40039 746.40039 L 949.59961 748.5 L 948.30078 751 L 947.69922 753.09961 L 948.90039 754.09961 L 954.90039 751.59961 L 956.19922 751.59961 L 956.80078 753.59961 L 956.19922 755.90039 L 954.40039 760.19922 L 954 763.30078 L 954.5 764.59961 L 958.30078 765.69922 L 959.80078 766.5 L 964 769.69922 L 968 770.59961 L 970.40039 770.69922 L 972.09961 770.19922 L 973.19922 769 L 974.19922 767 L 976 762.40039 L 976 759.19922 L 977.5 756.59961 L 981.40039 752.30078 L 986.90039 739.19922 L 991.69922 726.80078 L 992.09961 724.80078 L 992.09961 721.5 L 992.30078 719.80078 L 992.90039 718.59961 L 993.69922 717.80078 L 994.40039 716.59961 L 994.59961 714.40039 L 994.80078 710 L 995.69922 705.19922 L 997.09961 700.5 L 999 696.80078 L 998.59961 696.40039 L 998.19922 695.80078 L 998.69922 690.80078 L 997.09961 687.40039 L 994.69922 684.40039 L 992.69922 680.90039 L 992.40039 679.69922 L 991.90039 676.59961 L 991.90039 676.40039 L 990.80078 664.40039 L 991.69922 662.19922 L 990.59961 659.80078 L 988.59961 657.69922 L 986.90039 656.30078 L 984.40039 655.19922 L 979.30078 653.59961 L 976.90039 652.19922 L 974.59961 650.59961 L 967.40039 648.19922 L 965 645.59961 L 964.69922 643.80078 L 964.40039 642.5 L 965.30078 639.09961 L 967.40039 635.80078 L 968.69922 632.19922 L 968.5 627.59961 L 967.5 623.19922 L 966.09961 620.09961 L 960.80078 615.69922 L 958.30078 612.80078 L 957.19922 608.40039 L 956.80078 603.69922 L 955.30078 601.69922 L 953.30078 600.30078 L 951.5 597.59961 L 951.19922 593.80078 L 952.59961 590.80078 L 958.90039 584.40039 L 960.90039 581.69922 L 962.5 578.5 L 963.5 575.09961 L 963.80078 564.30078 L 964.40039 562.59961 L 966.80078 558.30078 L 967.19922 556.59961 L 967.40039 555 L 967.80078 553.40039 L 968.59961 551.90039 L 970.59961 549.40039 L 963.59961 544.09961 L 962.5 541.5 L 963.09961 536.90039 L 964.30078 533.69922 L 964.69922 531.19922 L 963.09961 528.69922 L 963.09961 527.59961 L 965.30078 524.80078 L 965.30078 521.09961 L 963.59961 518 L 960.59961 516.69922 L 957.5 515.90039 L 953.80078 514 L 951.30078 511.30078 L 952 508 L 949.69922 502.90039 L 947.09961 495.09961 L 946.5 488 L 952.09961 483 L 954.80078 478.80078 L 956.59961 474.59961 L 956.09961 472.69922 L 954.09961 470.80078 L 954.90039 466.69922 L 957.90039 460.30078 L 954.59961 457.5 L 947.59961 449.59961 L 941.09961 447 L 938 442.69922 L 935.90039 441.80078 L 934.80078 440.69922 L 931 433.30078 L 929.40039 431.30078 L 917.80078 422.69922 L 914.80078 421.09961 L 911.30078 416.90039 L 909.09961 416 L 906.69922 415.80078 L 904.40039 415.09961 L 902.5 413.59961 L 901.19922 411 L 904.09961 408.5 L 905.30078 406.30078 L 905.69922 402.90039 L 905.5 400.69922 L 904.09961 394.30078 L 903.5 392.40039 L 903.5 391.30078 L 908.80078 387.40039 L 915.40039 383.90039 L 921.80078 378.80078 L 925.09961 375.30078 L 926.59961 372 L 926.90039 370.5 L 930.19922 360.19922 L 929.90039 357.59961 L 929.30078 355 L 928.90039 352.09961 L 929.19922 349.59961 L 930 347.40039 L 931 345.80078 L 932.19922 345.19922 L 933 344 L 935.80078 338.40039 L 934.40039 337 L 934 336 L 932.30078 334.59961 L 931.69922 333.5 L 931.30078 331.69922 L 931.19922 328.40039 L 931.09961 326.80078 L 930.30078 323.40039 L 928.09961 312.69922 L 926.90039 303.30078 L 924.59961 299.40039 L 923.5 295.59961 L 920.90039 291.5 L 920.09961 287.69922 L 920 283.69922 L 920.30078 276.90039 L 920.09961 275.09961 L 917.80078 268 L 916.19922 264.40039 L 916.59961 261.5 L 916.5 256.40039 L 915.59961 256.5 L 913.90039 256.19922 L 912.30078 255.69922 L 910.90039 254.90039 L 916 251.19922 L 916.90039 249.80078 L 916.5 246.90039 L 915 245.30078 L 913.19922 245 L 912.40039 245.5 L 911.09961 248.09961 L 908.09961 249 L 899.30078 248.40039 L 898 247.80078 L 895.30078 246.19922 L 894.5 246 L 891.80078 246.19922 L 891.40039 245.80078 L 889.59961 243.59961 L 886 242.69922 L 878 236 L 876.90039 236.19922 L 875.09961 234.69922 L 873.5 232.30078 L 872.80078 230.30078 L 871.90039 229.59961 L 869.90039 229.19922 L 867.90039 228.19922 L 866.90039 225.90039 L 868 223.5 L 875.80078 217.09961 L 877 215.30078 L 877.69922 213.30078 L 877.5 211.5 L 876.19922 210.80078 L 875.59961 210.69922 L 874.90039 210.40039 L 874.19922 210 L 873.59961 209.5 L 873.30078 209.40039 L 871.69922 209.5 L 871.30078 209.19922 L 871.30078 208.5 L 871.5 207.59961 L 871.30078 207 L 871 206.09961 L 870.69922 204.80078 L 870.19922 203.5 L 869.5 203 L 866.40039 201.59961 L 865.69922 201.19922 L 864.59961 199.30078 L 861.40039 195.19922 L 860.09961 194.19922 L 863.09961 192.40039 L 864.40039 189.09961 L 865.30078 185.5 L 866.90039 182.80078 L 866.90039 181.5 L 858.19922 174.30078 L 854.90039 172.5 L 854.90039 171.40039 L 856 171.09961 L 856.69922 170.5 L 856.90039 169.69922 L 856.40039 168.69922 L 853.30078 169.80078 L 847.69922 173.59961 L 844.5 175.09961 L 831.09961 177.69922 L 831.09961 179 L 832 179.80078 L 833.19922 182 L 834.09961 182.80078 L 834.09961 184.09961 L 831.59961 184 L 829.5 182.69922 L 827.90039 180.5 L 826.59961 177.69922 L 825 173.5 L 824.40039 172.5 L 823.40039 172.30078 L 822.69922 172.90039 L 821.90039 173.30078 L 820.59961 172.5 L 821.5 171.80078 L 822 170.90039 L 822.80078 168.69922 L 820.69922 167.90039 L 816.59961 170 L 813.90039 170 L 815.19922 168.69922 L 816.90039 167.5 L 813.90039 164.80078 L 810.40039 157.40039 L 807.59961 155.90039 L 803.80078 155 L 798.09961 151.69922 L 794.5 152.09961 L 795.80078 151.30078 L 796.5 151 L 797.5 150.90039 L 797.5 149.5 L 792.59961 149.5 L 791.40039 148.90039 L 791.09961 147.30078 L 791.09961 145.30078 L 790.80078 143.30078 L 787.69922 138.19922 L 787.30078 135.40039 L 789.30078 131.69922 L 788 130.40039 L 783.30078 128 L 782 126.19922 L 781.19922 123.80078 L 781.30078 121.5 L 782.59961 120.19922 L 779.90039 119.40039 L 775.59961 121 L 771.19922 123.80078 L 768.5 126.59961 L 767.5 128.40039 L 766.40039 131.5 L 765.40039 133 L 764.19922 134.09961 L 763.09961 134.40039 L 761 134.19922 L 759.90039 134.5 L 759.5 134.69922 L 759.09961 134.40039 L 757.30078 132 L 756.59961 130.80078 L 756.09961 129.40039 L 755.80078 128 L 754.80078 129.30078 L 753.69922 130.19922 L 752.59961 130.30078 L 751.30078 129.09961 L 750.09961 130.59961 L 748.90039 130 L 747.69922 128.40039 L 746.80078 126.59961 L 746.40039 128.09961 L 745.90039 129.30078 L 744.5 131.69922 L 744.80078 129.30078 L 745.40039 127.19922 L 746.5 125.69922 L 748.19922 125.30078 L 748.19922 123.90039 L 746.80078 123.80078 L 745.5 123.90039 L 744.19922 124.5 L 743.09961 125.30078 L 743.30078 125.90039 L 743.59961 127.40039 L 743.80078 128 L 737.90039 131.40039 L 734.59961 132.19922 L 732.59961 130.40039 L 732.59961 131.69922 L 731.69922 131 L 731 130.90039 L 728.90039 131.69922 L 728.90039 133 L 729.59961 133.09961 L 731.09961 134.19922 L 724 137.69922 L 722.19922 139.19922 L 722 140 L 721.80078 142.40039 L 721.5 143.30078 L 721.09961 143.59961 L 719.90039 144 L 719.19922 144.40039 L 716.5 147.09961 L 715.5 148.69922 L 714.69922 150.90039 L 717 152.90039 L 718.30078 153.5 L 720 153.5 L 717.59961 154.90039 L 715 154.19922 L 710.19922 150.90039 L 711.5 149.5 L 711.19922 147.80078 L 710.30078 145.80078 L 709.5 143.30078 L 711.30078 142.90039 L 712.69922 141.19922 L 713.19922 139 L 712.5 136.80078 L 713.30078 135.5 L 714 136.19922 L 714.69922 136.5 L 716.19922 136.80078 L 715.59961 133.90039 L 716.30078 131 L 717.80078 128.80078 L 719.59961 128 L 723.5 128.40039 L 725.69922 129.40039 L 727.40039 131.69922 L 728.40039 129.5 L 730.40039 128.19922 L 732.69922 128 L 734.80078 129.09961 L 734.80078 128.30078 L 734.90039 128.09961 L 734.69922 127.80078 L 734 127.59961 L 733.59961 126.90039 L 733.40039 125.30078 L 734.09961 125.09961 L 735.09961 124.30078 L 735.59961 123.90039 L 736.30078 125.30078 L 737 122.80078 L 738 122.19922 L 740.80078 122.69922 L 743.09961 122.69922 L 743.69922 122.30078 L 744.80078 120.59961 L 745.69922 120.19922 L 748.59961 120.59961 L 753.19922 122.30078 L 764.90039 123.30078 L 767.59961 122.69922 L 770.30078 120.19922 L 769 118.09961 L 765.80078 117.40039 L 763.30078 118.80078 L 759.19922 116.80078 L 734.5 116.80078 L 729.80078 114.90039 L 727.40039 111.09961 L 728.19922 111.09961 L 728.19922 110 L 726 111.09961 L 724.69922 112.69922 L 723 117.59961 L 718.5 125.5 L 717.80078 127.30078 L 711.19922 136.80078 L 707.30078 144.40039 L 705.69922 146.30078 L 701.59961 149.80078 L 693.40039 154.30078 L 692 154.69922 L 690.40039 155.69922 L 687.80078 160.09961 L 685.59961 162.09961 L 681.90039 167 L 681.09961 168.69922 L 682.09961 168 L 683.19922 167.5 L 684.40039 167.30078 L 685.59961 167.5 L 684.69922 170 L 681.59961 171.80078 L 680.40039 173.90039 L 681 175.69922 L 681.5 180.59961 L 682.59961 182.80078 L 680.09961 179.80078 L 679.80078 175.40039 L 680.19922 170.30078 L 679.69922 164.90039 L 675.59961 167.59961 L 649.69922 173.19922 L 640.59961 171.5 L 636.30078 172.19922 L 632.80078 174.59961 L 630.19922 179.5 L 629.30078 180.59961 L 629 181.5 L 629 182.5 L 629.80078 183.19922 L 629.69922 184.09961 L 629.19922 185.5 L 628.69922 186.59961 L 627.90039 187.40039 L 627.09961 187.80078 L 625.59961 188.80078 L 623.69922 193.69922 L 621.5 195.40039 L 620.5 195.40039 L 617.69922 194.19922 L 617.69922 195.40039 L 618.5 195.40039 L 618.5 196.69922 L 614.80078 200.5 L 615 201.40039 L 615.19922 203.5 L 615.40039 204.30078 L 614.5 204.59961 L 613.5 205.40039 L 612.69922 206.69922 L 613.09961 209.69922 L 612.30078 213.40039 L 611.19922 216.40039 L 611.09961 218.30078 L 609.80078 218.30078 L 609 217.80078 L 604.80078 212.5 L 604.80078 211.90039 L 600.19922 211.90039 L 599.59961 211.30078 L 598.40039 208.69922 L 597.59961 208.09961 L 593.19922 211.90039 L 592.30078 212.09961 L 589.09961 211.90039 L 587.69922 211.09961 L 587.40039 209.19922 L 588 205 L 587.40039 204 L 583.5 203 L 582.69922 201.69922 L 582 199.09961 L 581.30078 198 L 580.30078 197.59961 L 567.09961 199.40039 L 561.30078 202.5 L 559.19922 203 L 557.40039 203.69922 L 554.19922 207 L 552.80078 208.09961 L 552.30078 208.19922 L 551 208.19922 L 550.59961 208.09961 L 549 207.59961 L 548.59961 205.90039 L 548.5 203.69922 L 547.69922 201.80078 L 546.59961 201.40039 L 542.40039 201.80078 L 539.40039 200.90039 L 537.40039 199.09961 L 535.80078 196.5 L 534.30078 192.80078 L 534.30078 191.69922 L 535.40039 190.40039 L 539.59961 183.90039 L 540.09961 183.40039 L 540.90039 182.80078 L 541.90039 182.90039 L 542.69922 183.69922 L 543.40039 184.30078 L 544.30078 183.40039 L 545.19922 183.5 L 549.59961 181.90039 L 551.5 180.69922 L 555.90039 175.09961 L 568.5 166.80078 L 569 165.19922 L 570 164 L 571.09961 162.30078 L 571.5 159.09961 L 570.80078 153.80078 L 570.69922 150.59961 L 571.5 148.30078 L 570.69922 144.69922 L 569.69922 137.30078 L 568.5 134.19922 L 570.09961 135 L 570.80078 135.5 L 572 133.69922 L 576 129.09961 L 572.59961 127.80078 L 564.90039 132.59961 L 562.40039 130.80078 L 560.5 131.40039 L 558.59961 130.5 L 561.30078 130.5 L 563.30078 130.40039 L 563.30078 129.09961 L 554.19922 130.30078 L 550.5 131.90039 L 546.90039 134.19922 L 540.69922 140.09961 L 537 142.40039 L 532 143.30078 L 527.5 142.19922 L 517.80078 133 L 500.69922 125.30078 L 494.09961 120 L 491.69922 118.80078 L 487.09961 118.40039 L 485.80078 118.80078 L 484.80078 119.80078 L 484.19922 120.90039 L 483.5 121.90039 L 482 122.69922 L 477.90039 123.19922 L 476.80078 123.90039 L 476 125.5 L 474.59961 131.69922 L 472 137.5 L 470.19922 139.69922 L 467.80078 140.59961 L 468.90039 138.80078 L 469.30078 137.09961 L 469 135.5 L 467.80078 134.19922 L 468.5 133 L 468.5 132.40039 L 468.09961 132.09961 L 467.80078 131.69922 L 469.69922 131.09961 L 471.69922 129.40039 L 473.19922 127.09961 L 473.90039 124.59961 L 473.30078 121.59961 L 472.40039 119.30078 L 472.40039 117.30078 L 474.59961 115.09961 L 468 109.30078 L 466 108.59961 L 439.69922 114.90039 L 435 112.40039 L 435 111.09961 L 439.59961 110.59961 L 444.30078 109.09961 L 448.69922 106.59961 L 452.19922 103.30078 L 453.5 101.30078 L 454.59961 99.199219 L 455.30078 96.5 L 455.90039 93.199219 L 456.5 85.400391 L 456.40039 81.699219 L 455.90039 79.099609 L 456.69922 76.400391 L 456.09961 75.300781 L 454.80078 75.400391 L 453.59961 76.400391 L 452 74.199219 L 449.19922 74.300781 L 446.30078 75.199219 L 444.69922 75.099609 L 444.80078 73.400391 L 445 72.900391 L 445.5 73 L 446.19922 72.5 L 446.59961 72.5 L 449.30078 70.300781 L 449.19922 69.900391 L 450.19922 70.199219 L 451.59961 70.800781 L 453 71 L 454.40039 69.900391 L 452.40039 67.699219 L 451.40039 66.300781 L 450.69922 64.800781 L 449.19922 58.400391 L 446.69922 55.199219 L 443.19922 53 L 440.59961 53.099609 L 441 57.099609 L 436.09961 59 L 433.19922 59.5 L 432 57.699219 L 430.80078 54.400391 L 428.30078 52.599609 L 425.40039 51.400391 L 423.5 49.900391 L 419 47.900391 L 412.30078 47.5 L 407 45.599609 L 406.69922 38.800781 L 405.30078 39.900391 L 403.90039 42.400391 L 401.19922 43.5 L 399.19922 46 L 392.69922 49.300781 L 391.19922 49.300781 L 389.5 49.900391 L 387.69922 49.699219 L 385.5 47.599609 L 383.5 48.099609 L 382.30078 49.199219 L 380.80078 49.599609 L 379.69922 50.699219 L 378.09961 51 L 370.09961 51 L 368.19922 50.199219 L 367.40039 47.900391 L 367.09961 45.300781 L 366.59961 43.400391 L 364.80078 41.800781 L 341.69922 36.300781 L 333.09961 32.800781 L 324.40039 31.300781 z M 288.90039 59.5 L 285.19922 59.800781 L 282.30078 61 L 279.80078 63.400391 L 277.69922 67.400391 L 284 71.300781 L 287.5 72.400391 L 290.40039 71.300781 L 291.30078 72.099609 L 293 72.800781 L 294.80078 73 L 296.30078 72.5 L 297.19922 71.199219 L 298.5 67.599609 L 299.40039 66.099609 L 299.40039 64.800781 L 297.40039 61.400391 L 294.90039 59.900391 L 288.90039 59.5 z M 274 67.400391 L 271.59961 68.300781 L 269.59961 70.400391 L 266.5 76.400391 L 268.59961 79.300781 L 270.69922 83.099609 L 273.19922 85.400391 L 276.90039 84.099609 L 278.40039 82.800781 L 276.30078 81.599609 L 270.90039 71.300781 L 272 69.900391 L 273.19922 68.699219 L 273.5 68.400391 L 273.80078 68.5 L 274 68.300781 L 274 67.400391 z M 824.5 72.300781 L 821.5 72.400391 L 806.5 76.800781 L 805.19922 77.699219 L 804.09961 79 L 803.40039 80.199219 L 803.40039 82.400391 L 804.09961 82.599609 L 805.69922 81.5 L 810.5 80.199219 L 810.90039 81 L 810.59961 82.800781 L 810.19922 84.599609 L 809.80078 85.400391 L 808.30078 86.800781 L 806.90039 89.900391 L 806.09961 93.400391 L 806.5 95.599609 L 808.69922 96.300781 L 810.59961 94.900391 L 812.5 92.800781 L 815 91.300781 L 816.80078 88.800781 L 817.59961 87.900391 L 819.09961 86.699219 L 819.30078 87.5 L 820.59961 89.300781 L 821.30078 90.699219 L 821.69922 91.900391 L 822.40039 92.800781 L 824 93.199219 L 825.09961 93.800781 L 825.80078 95.099609 L 826.40039 96.400391 L 827 97 L 830.69922 97.199219 L 831.90039 97 L 832.69922 96.400391 L 833.40039 95.400391 L 834.19922 94.599609 L 835.59961 94.5 L 835.59961 95.599609 L 834.69922 95.800781 L 834.30078 96.199219 L 833.90039 96.599609 L 833.30078 97 L 833.30078 98.300781 L 834.19922 99.400391 L 834.80078 100.69922 L 835.59961 103.30078 L 835.59961 104.69922 L 834.90039 105.30078 L 834.40039 106.09961 L 833.30078 108.59961 L 834.09961 110 L 828.5 110.09961 L 825.80078 109.09961 L 823.59961 106 L 824.30078 103.19922 L 823.09961 100.59961 L 821.09961 98.099609 L 819.90039 95.599609 L 818.40039 97 L 818.40039 98.300781 L 819.40039 98.599609 L 820.40039 99.400391 L 821.40039 99.699219 L 820.69922 101.80078 L 819.69922 103 L 818.5 103.40039 L 816.90039 103.30078 L 817.90039 100.59961 L 818.40039 99.699219 L 818 98.800781 L 817.40039 98.400391 L 816.80078 98.300781 L 816.19922 98.300781 L 817.09961 97.300781 L 817.90039 95.599609 L 819.09961 91.800781 L 817.30078 92.5 L 815.19922 94 L 813.30078 96.099609 L 811.69922 98.300781 L 812.59961 101.19922 L 812.19922 103.40039 L 811.30078 104.09961 L 810.90039 102.69922 L 810.30078 100.30078 L 809 99.300781 L 807.80078 98.800781 L 807.19922 97.699219 L 805.40039 97.300781 L 797 98.5 L 794.5 99.699219 L 795.5 99.699219 L 796.19922 100.09961 L 796.59961 101.09961 L 796.80078 102.69922 L 797 104.19922 L 797.5 104.59961 L 798 104.80078 L 798.19922 105.40039 L 799.09961 106.19922 L 801 106 L 804.30078 104.69922 L 804.40039 106 L 804.19922 106.59961 L 803.40039 107.40039 L 804.30078 109.09961 L 805.59961 109.90039 L 808.59961 111.09961 L 808 112 L 807.19922 112.40039 L 807.19922 113.69922 L 804.90039 114.09961 L 801.69922 115.80078 L 798.69922 116.59961 L 797.90039 117.59961 L 796 121.5 L 800.80078 120.19922 L 802 120.69922 L 802.59961 121.69922 L 803.40039 122.59961 L 804.90039 122.69922 L 804.90039 123.90039 L 804.40039 125.90039 L 805 127.69922 L 806.30078 128.90039 L 808 129.09961 L 804.69922 131.40039 L 803.19922 131.59961 L 802 130.40039 L 801.19922 131.69922 L 797.90039 129.5 L 795.09961 130.69922 L 793 134.09961 L 791.5 138.09961 L 798.19922 143.30078 L 798.19922 144.40039 L 796.59961 143.69922 L 795.09961 144.30078 L 794.5 145.59961 L 795.19922 147 L 796.30078 146.90039 L 799.59961 145.19922 L 801.19922 145.69922 L 800.59961 148.09961 L 801.80078 149.69922 L 803.69922 150.59961 L 805.30078 150.90039 L 806 151.5 L 807 152.59961 L 808.09961 153.30078 L 809.09961 152.80078 L 809.90039 152.09961 L 811 151.90039 L 813.19922 152.09961 L 812.90039 151.40039 L 812.40039 150.90039 L 813.09961 150 L 813.80078 149.19922 L 815.40039 148.30078 L 814.30078 151.09961 L 813.69922 153.30078 L 812.80078 154.30078 L 816.69922 156.80078 L 820.09961 158.09961 L 823.19922 158.59961 L 825 157.69922 L 825.19922 155.80078 L 824.40039 151.5 L 823.59961 151.19922 L 818.40039 152.09961 L 818.90039 152.30078 L 819.19922 152.5 L 819.09961 153.5 L 817.59961 154.69922 L 818.09961 149.80078 L 820.5 148.5 L 823.09961 147.90039 L 824.40039 145.09961 L 825.59961 143.09961 L 831.40039 138 L 833.30078 136.80078 L 844.09961 135.5 L 845.40039 136.19922 L 846.19922 137.5 L 847.09961 137.90039 L 848.59961 136.19922 L 849.69922 135.40039 L 851.19922 135.19922 L 854.09961 135.5 L 854.09961 136.80078 L 852.09961 137.69922 L 848.19922 140.40039 L 850.69922 139.59961 L 856.40039 139.19922 L 855.5 141.40039 L 853.80078 142.69922 L 849.80078 144.40039 L 849.80078 145.69922 L 851.09961 146.30078 L 852.90039 146.30078 L 854.5 145.69922 L 855.69922 144.40039 L 856.40039 144.40039 L 856.90039 146.40039 L 856.40039 147.69922 L 855.40039 148.30078 L 854.09961 148.30078 L 856.5 149.09961 L 857.59961 149.19922 L 858 148 L 858 145.09961 L 858.40039 142 L 859.5 139.59961 L 860.90039 137.80078 L 862.30078 136.80078 L 859.69922 135.80078 L 857.80078 133.30078 L 854.90039 128 L 852.69922 126.30078 L 847.5 125.09961 L 845.30078 123.90039 L 844.09961 122.30078 L 842.90039 119.5 L 842 116.19922 L 841.59961 113 L 842.59961 110.30078 L 845 108 L 849.80078 104.69922 L 852.59961 100.19922 L 851.90039 95.300781 L 848.59961 91.699219 L 843.80078 90.599609 L 829.69922 93.300781 L 825.09961 91.800781 L 823.30078 90.199219 L 821.90039 88.199219 L 820.90039 85.5 L 820.59961 82.099609 L 821.5 79.5 L 823.40039 77.699219 L 825.69922 76.400391 L 827.40039 75.099609 L 827.40039 73.900391 L 824.5 72.300781 z M 792.59961 87.900391 L 790.90039 88.400391 L 790.09961 89.699219 L 789.30078 94.5 L 785.90039 106.80078 L 785.59961 111.09961 L 785.59961 113.69922 L 786.30078 113.69922 L 786.5 109.69922 L 786.69922 107.80078 L 787.09961 106 L 787.69922 104.5 L 789.30078 103.19922 L 790.09961 102.09961 L 791.09961 98.300781 L 791.19922 94.599609 L 791.90039 91.5 L 794.5 89.300781 L 794.5 93.199219 L 795.19922 93.199219 L 795.19922 90.599609 L 795.59961 90.699219 L 796 91 L 796 89.199219 L 795.40039 88.099609 L 794.09961 87.900391 L 792.59961 87.900391 z M 310.80078 96.800781 L 303.80078 99.800781 L 303 100.30078 L 302.19922 100.69922 L 300.30078 102.19922 L 299.59961 105.19922 L 300.69922 107.90039 L 302.09961 109.09961 L 304.5 109.19922 L 307.59961 107.40039 L 310.09961 103.40039 L 311 98.800781 L 310.80078 96.800781 z M 574.40039 101 L 569.19922 101.90039 L 564.90039 106.09961 L 561.90039 113.69922 L 562.19922 116.30078 L 563.5 115.5 L 564 115.5 L 564.40039 116.30078 L 564.80078 117.59961 L 565.59961 117.59961 L 566.40039 116.5 L 567.59961 116.09961 L 570.40039 116.19922 L 572 116.80078 L 572.5 118.30078 L 572.30078 122.09961 L 573.5 123.59961 L 576.40039 124.09961 L 580.69922 123.80078 L 580.30078 123.5 L 579.80078 122.69922 L 581.80078 121.59961 L 595.40039 123.90039 L 589.09961 111.80078 L 587.40039 108.59961 L 586.5 107.5 L 583.69922 105.09961 L 574.40039 101 z M 334.80078 102 L 330.5 102.30078 L 326.59961 104.09961 L 323.19922 107.40039 L 324.09961 108.30078 L 324.59961 109.40039 L 324.40039 110.5 L 323.19922 111.09961 L 324.40039 113.19922 L 326.59961 114 L 331.40039 113.69922 L 333.90039 112.40039 L 335.5 110.19922 L 336.90039 107.90039 L 338.90039 106 L 338.80078 105 L 338.80078 104.09961 L 339.09961 103.59961 L 339.59961 103.30078 L 334.80078 102 z M 223.30078 164.80078 L 221.69922 165 L 222.30078 165.59961 L 222.80078 166.09961 L 223.09961 167 L 223.59961 167.09961 L 223.80078 167.90039 L 224.30078 167.5 L 223.90039 165.59961 L 223.30078 164.80078 z M 865.59961 167.90039 L 863.59961 168.69922 L 861.90039 170.40039 L 860.90039 172.5 L 862.19922 174.59961 L 866.69922 179.30078 L 867.59961 182.19922 L 867 187 L 864 193.19922 L 863.19922 196.69922 L 865.40039 197.59961 L 866.90039 196.09961 L 868.5 193.90039 L 872 192.40039 L 872.90039 191.69922 L 873.69922 191.90039 L 874.30078 194.19922 L 874 195.40039 L 873.09961 196.5 L 872.30078 198 L 872.09961 200.5 L 875.90039 199.09961 L 876.5 198.69922 L 876.90039 197.30078 L 877.69922 195.90039 L 878.59961 194.69922 L 879.59961 194.19922 L 879.59961 192.80078 L 878.59961 190.5 L 879.69922 189.09961 L 881.90039 188.59961 L 884 189.09961 L 885.80078 190.5 L 887.19922 192.5 L 888.40039 195 L 889.30078 198 L 891.80078 196.90039 L 893.30078 200 L 893.5 205 L 892.09961 209.5 L 893 211.90039 L 889.30078 210.80078 L 889.5 209.69922 L 889.80078 209 L 890.19922 208.59961 L 890.80078 208.09961 L 886.40039 208.09961 L 885 208.90039 L 883.30078 211.90039 L 883.40039 209 L 884.30078 205.40039 L 884 204.30078 L 884.80078 203 L 882.80078 202.19922 L 877.40039 201.80078 L 877.09961 206.59961 L 881.09961 214.30078 L 880.30078 219.59961 L 879.30078 220.69922 L 875.5 222.90039 L 872 223.69922 L 869.80078 225.40039 L 868.40039 225.90039 L 870.40039 228.69922 L 874.19922 229.80078 L 881.09961 229.69922 L 887.30078 228 L 890.5 226.19922 L 893 223.30078 L 894.80078 224.59961 L 897.30078 224.90039 L 909.59961 223.5 L 908.69922 220.59961 L 906.80078 218.30078 L 907.90039 218 L 908.80078 217.30078 L 910.59961 212.40039 L 908.69922 210.90039 L 889.59961 189.80078 L 886.30078 187.80078 L 882.09961 186.19922 L 875 182 L 872.09961 179 L 870.80078 176.59961 L 868.59961 170.5 L 867.59961 168.69922 L 865.59961 167.90039 z M 628.30078 180.19922 L 626.80078 181.59961 L 619.40039 185.19922 L 618.80078 186.59961 L 618.80078 187 L 619.40039 190.40039 L 620 190.40039 L 621.40039 187.40039 L 626.40039 182.80078 L 628.30078 180.19922 z M 309 186 L 308.09961 186.09961 L 307.19922 186.90039 L 306.80078 187.40039 L 306.40039 189 L 306.5 189.90039 L 306.90039 191 L 308 192.69922 L 309.40039 193.09961 L 309.80078 192.09961 L 309.80078 191.30078 L 310.09961 190.40039 L 310.09961 189.90039 L 309.5 189.5 L 309.09961 188.69922 L 308.90039 187.90039 L 309 187 L 309 186 z M 612.19922 195.19922 L 607.69922 196.69922 L 603.69922 200.09961 L 602.09961 204.30078 L 603.80078 205.80078 L 605.59961 206.90039 L 607.30078 206.90039 L 608.90039 205.59961 L 608.40039 203 L 609 201.5 L 609.90039 201.5 L 610.40039 203.59961 L 609.59961 206.90039 L 609.69922 208.19922 L 611.09961 208.09961 L 612.19922 206.40039 L 615.40039 196.69922 L 612.19922 195.19922 z M 223.59961 238.59961 L 221.30078 238.90039 L 219.40039 239.59961 L 218.90039 240.80078 L 221 242.30078 L 221.19922 240.09961 L 223.09961 240 L 227.69922 241 L 228.90039 240.90039 L 229.90039 241.09961 L 227 239.30078 L 225.40039 238.80078 L 223.59961 238.59961 z M 205.19922 240.40039 L 200.59961 241.40039 L 197.80078 244.90039 L 198.69922 245.69922 L 199.59961 245.69922 L 200.5 245 L 201.5 243.59961 L 204.19922 245.30078 L 207.30078 245.09961 L 210.40039 243.80078 L 212.80078 242.30078 L 214.40039 242.30078 L 214.40039 241 L 205.19922 240.40039 z M 191.90039 244.80078 L 182.19922 244.90039 L 178.90039 245 L 177.5 245.90039 L 177 248 L 177.40039 250.5 L 178.30078 251.40039 L 181.5 251.19922 L 181.80078 248 L 185.5 247.09961 L 193.40039 247.30078 L 194.19922 247 L 194.09961 246.19922 L 191.90039 244.80078 z M 251.30078 249.09961 L 249.19922 250.09961 L 247.80078 252.5 L 247.80078 253.69922 L 249 253 L 249.59961 253 L 250.19922 253.5 L 251.19922 253.69922 L 251.69922 253.30078 L 253.40039 251.59961 L 254.5 251.19922 L 256.09961 251.19922 L 253.80078 249.5 L 251.30078 249.09961 z M 169.80078 249.59961 L 167.59961 249.90039 L 165.80078 251.19922 L 167.40039 251.09961 L 171.69922 252.5 L 172.59961 252.19922 L 173 251.90039 L 173.30078 251.19922 L 171.90039 250.09961 L 169.80078 249.59961 z M 151.19922 250.90039 L 145.40039 251.90039 L 140.40039 254.90039 L 144.80078 256.09961 L 158.09961 254.30078 L 163.09961 252.30078 L 163.40039 252.30078 L 163.59961 252.09961 L 163.59961 251.19922 L 151.19922 250.90039 z M 112.5 265.30078 L 111.90039 265.80078 L 111.40039 266 L 111.19922 266.59961 L 111.30078 268.5 L 112.59961 269.80078 L 114.30078 270.5 L 117.40039 267 L 116.90039 266.30078 L 114.5 265.30078 L 112.5 265.30078 z M 102.5 271 L 98.400391 271.40039 L 90.099609 273.90039 L 88.800781 274.90039 L 89.300781 277 L 90.699219 279.19922 L 92.699219 280.19922 L 93.400391 280 L 95 279.09961 L 96.099609 278.90039 L 97 279.30078 L 98.400391 281 L 99.400391 281.5 L 98.599609 279.80078 L 97.800781 278.69922 L 96.900391 278 L 95.699219 277.5 L 95.699219 276.40039 L 97.699219 275.90039 L 101.5 274.30078 L 103.90039 273.90039 L 102.5 271 z " />
  <g id="lines" style="fill:none;stroke:#43d5ea;stroke-width:2;stroke-linecap:round;stroke-linejoin:round;stroke-miterlimit:4">
    <path d="m 858.12971,721.8933 -80.4828,35.90205"
       id="path1705" />
    <path d="m 915.84435,665.02745 68.3352,29.39559"
       id="path1729" />
    <path d="m 427.95395,753.59598 v 54.97356"
       id="path2085" />
    <path d="m 395.42641,59.7407 20.62476,61.5187"
       id="path1239" />
    <path d="M 472.59146,153.9745 416.05117,121.2594"
       id="path1245" />
    <path d="m 460.85668,192.3792 11.73478,-38.4047"
       id="path1247" />
    <path d="m 416.05117,121.2594 44.80551,71.1198"
       id="path1249" />
    <path d="M 537.31053,226.8723 472.59146,153.9745"
       id="path1251" />
    <path d="m 460.85668,192.3792 76.45385,34.4931"
       id="path1253" />
    <path d="m 464.41267,282.7014 72.89786,-55.8291"
       id="path1255" />
    <path d="m 460.85668,192.3792 3.55599,90.3222"
       id="path1257" />
    <path d="m 537.31053,226.8723 71.83106,8.89"
       id="path1263" />
    <path d="m 603.0964,288.7466 6.04519,-52.9843"
       id="path1269" />
    <path d="M 84.750915,764.66704 33.221751,777.49613"
       id="path1429" />
    <path d="M 126.99282,733.55769 84.750915,764.66704"
       id="path1431" />
    <path d="m 71.801848,698.72843 12.949067,65.93861"
       id="path1433" />
    <path d="m 106.12952,581.09961 35.86667,64.04535"
       id="path1439" />
    <path d="M 209.51136,561.55475 106.12952,581.09961"
       id="path1441" />
    <path d="M 71.801848,698.72843 106.12952,581.09961"
       id="path1443" />
    <path d="M 198.51566,834.14752 148.42621,777.49613"
       id="path1449" />
    <path d="M 266.84567,883.5914 198.51566,834.14752"
       id="path1451" />
    <path d="M 152.70435,860.87078 266.84567,883.5914"
       id="path1457" />
    <path d="M 93.149655,954.02044 152.70435,860.87078"
       id="path1463" />
    <path d="M 33.221751,777.49613 152.70435,860.87078"
       id="path1465" />
    <path d="m 198.51566,834.14752 -45.81131,26.72326 v 0"
       id="path1467" />
    <path d="m 266.84567,883.5914 -51.91429,34.54352"
       id="path1473" />
    <path d="M 93.149655,954.02044 214.93138,918.13492"
       id="path1475" />
    <path d="m 152.70435,860.87078 62.22703,57.26414"
       id="path1477" />
    <path d="M 214.93138,992.96005 V 918.13492"
       id="path1481" />
    <path d="m 295.24491,987.00749 -80.31353,5.95256"
       id="path1483" />
    <path d="m 148.42621,998.3047 66.50517,-5.34465"
       id="path1487" />
    <path d="M 93.149655,954.02044 148.42621,998.3047"
       id="path1489" />
    <path d="m 126.99282,1032.6632 21.43339,-34.3585"
       id="path1493" />
    <path d="m 93.149655,954.02044 33.843165,78.64276"
       id="path1495" />
    <path d="m 198.51566,1050.2242 16.41572,-57.26415"
       id="path1499" />
    <path d="m 126.99282,1032.6632 71.52284,17.561"
       id="path1501" />
    <path d="m 148.42621,998.3047 50.08945,51.9195"
       id="path1503" />
    <path d="m 295.24491,987.00749 -45.57329,45.65571"
       id="path1507" />
    <path d="m 214.93138,992.96005 34.74024,39.70315"
       id="path1509" />
    <path d="m 198.51566,1050.2242 81.72588,12.8718"
       id="path1511" />
    <path d="m 249.67162,1032.6632 -51.15596,17.561"
       id="path1513" />
    <path d="M 312.39162,1087.6367 280.24154,1063.096"
       id="path1517" />
    <path d="m 366.51093,1103.8195 -54.11931,-16.1828"
       id="path1519" />
    <path d="m 259.97916,1109.0154 20.26238,-45.9194"
       id="path1525" />
    <path d="m 312.39162,1087.6367 -52.41246,21.3787"
       id="path1527" />
    <path d="m 231.34709,1154.4449 28.63207,-45.4295"
       id="path1535" />
    <path d="m 374.12566,1154.4449 -7.61473,-50.6254"
       id="path1537" />
    <path d="m 214.93138,1233.4694 16.41571,-79.0245"
       id="path1541" />
    <path d="m 288.99299,1223.5436 -74.06161,9.9258"
       id="path1547" />
    <path d="m 349.36422,1286.5342 -60.37123,-62.9906"
       id="path1551" />
    <path d="m 374.12566,1217.0537 -24.76144,69.4805"
       id="path1555" />
    <path d="m 374.12566,1154.4449 v 62.6088"
       id="path1557" />
    <path d="m 288.99299,1223.5436 85.13267,-6.4899"
       id="path1559" />
    <path d="m 231.34709,1154.4449 57.6459,69.0987"
       id="path1561" />
    <path d="m 259.97916,1109.0154 114.1465,45.4295"
       id="path1563" />
    <path d="m 288.99299,1223.5436 85.13267,-69.0987"
       id="path1565" />
    <path d="m 214.93138,1233.4694 134.43284,53.0648"
       id="path1567" />
    <path d="m 469.56588,1233.4694 12.59811,44.2843"
       id="path1579" />
    <path d="m 519.57656,1252.9392 -37.41257,24.8145"
       id="path1581" />
    <path d="m 469.56588,1233.4694 50.01068,19.4698"
       id="path1583" />
    <path d="m 374.12566,1217.0537 95.44022,16.4157"
       id="path1585" />
    <path d="m 482.16399,1277.7537 -108.03833,-60.7"
       id="path1587" />
    <path d="m 456.96777,1168.6554 -82.84211,-14.2105"
       id="path1591" />
    <path d="m 469.56588,1233.4694 -12.59811,-64.814"
       id="path1593" />
    <path d="m 579.51302,1310.5851 -97.34903,-32.8314"
       id="path1599" />
    <path d="m 689.07839,1252.9392 -109.56537,57.6459"
       id="path1603" />
    <path d="m 638.71495,1206.1639 50.36344,46.7753"
       id="path1605" />
    <path d="m 555.66057,1168.6554 h -98.6928"
       id="path1607" />
    <path d="M 754.74126,1206.1639 H 638.71495"
       id="path1611" />
    <path d="m 689.07839,1252.9392 65.66287,-46.7753"
       id="path1613" />
    <path d="m 638.71495,1206.1639 -59.20193,104.4212"
       id="path1615" />
    <path d="m 519.57656,1252.9392 59.93646,57.6459"
       id="path1617" />
    <path d="m 555.66057,1168.6554 -36.08401,84.2838"
       id="path1619" />
    <path d="m 822.6947,1134.5933 -67.95344,71.5706"
       id="path1625" />
    <path d="m 785.66389,1087.6368 37.03081,46.9565"
       id="path1629" />
    <path d="m 747.86956,1032.6632 37.79433,54.9736"
       id="path1633" />
    <path d="m 695.18656,947.91226 52.683,84.75094"
       id="path1639" />
    <path d="m 695.18656,1057.4776 52.683,-24.8144"
       id="path1643" />
    <path d="m 785.66389,1087.6368 -90.47733,-30.1592"
       id="path1645" />
    <path d="m 699.00417,1139.5562 -3.81761,-82.0786"
       id="path1651" />
    <path d="m 754.74126,1206.1639 -55.73709,-66.6077"
       id="path1653" />
    <path d="m 652.04758,1158.2625 -13.33263,47.9014"
       id="path1659" />
    <path d="m 699.00417,1139.5562 -46.95659,18.7063"
       id="path1661" />
    <path d="m 616.16206,1099.4713 35.88552,58.7912"
       id="path1667" />
    <path d="m 695.18656,1057.4776 -79.0245,41.9937"
       id="path1669" />
    <path d="m 661.97337,987.00749 33.21319,-39.09523"
       id="path1673" />
    <path d="m 584.05981,987.00749 h 77.91356"
       id="path1675" />
    <path d="M 695.18656,1057.4776 661.97337,987.00749"
       id="path1677" />
    <path d="m 631.4325,902.86448 63.75406,45.04778"
       id="path1683" />
    <path d="M 584.05981,987.00749 631.4325,902.86448"
       id="path1685" />
    <path d="M 661.97337,834.14752 631.4325,902.86448"
       id="path1687" />
    <path d="M 695.18656,947.91226 661.97337,834.14752"
       id="path1689" />
    <path d="m 689.07839,816.20476 -27.10502,17.94276"
       id="path1693" />
    <path d="m 731.07208,777.49613 -41.99369,38.70863"
       id="path1697" />
    <path d="m 777.64691,757.79535 -46.57483,19.70078"
       id="path1703" />
    <path d="m 714.17678,671.60291 63.47013,86.19244"
       id="path1707" />
    <path d="m 813.15067,678.36671 44.97904,43.52659"
       id="path1711" />
    <path d="m 714.17678,671.60291 98.97389,6.7638"
       id="path1713" />
    <path d="m 777.64691,757.79535 35.50376,-79.42864"
       id="path1717" />
    <path d="M 984.17955,694.42304 858.12971,721.8933"
       id="path1723" />
    <path d="m 858.12971,721.8933 57.71464,-56.86585"
       id="path1731" />
    <path d="M 813.15067,678.36671 915.84435,665.02745"
       id="path1733" />
    <path d="m 921.189,611.58093 -5.34465,53.44652"
       id="path1739" />
    <path d="M 984.17955,694.42304 921.189,611.58093"
       id="path1743" />
    <path d="M 950.96635,544.39101 921.189,611.58093"
       id="path1749" />
    <path d="m 937.98648,508.12373 12.97987,36.26728"
       id="path1755" />
    <path d="m 849.0362,408.8659 88.95028,99.25783"
       id="path1761" />
    <path d="M 808.53368,470.02407 849.0362,408.8659"
       id="path1763" />
    <path d="M 893.32046,377.76345 849.0362,408.8659"
       id="path1767" />
    <path d="m 785.66389,293.5741 107.65657,84.18935"
       id="path1771" />
    <path d="M 822.6947,192.7892 785.66389,293.5741"
       id="path1775" />
    <path d="m 785.66389,161.4849 37.03081,31.3043"
       id="path1779" />
    <path d="m 677.2438,198.1339 108.42009,-36.649"
       id="path1785" />
    <path d="M 609.14159,235.7623 677.2438,198.1339"
       id="path1787" />
    <path d="M 689.07839,246.6175 677.2438,198.1339"
       id="path1791" />
    <path d="m 603.0964,288.7466 85.98199,-42.1291"
       id="path1793" />
    <path d="m 785.66389,293.5741 -96.5855,-46.9566"
       id="path1795" />
    <path d="m 769.24817,328.3144 16.41572,-34.7403"
       id="path1803" />
    <path d="m 735.27145,302.7364 33.97672,25.578"
       id="path1807" />
    <path d="m 785.66389,293.5741 -50.39244,9.1623"
       id="path1809" />
    <path d="M 742.14315,404.66653 769.24817,328.3144"
       id="path1815" />
    <path d="M 808.53368,470.02407 742.14315,404.66653"
       id="path1817" />
    <path d="M 849.0362,408.8659 742.14315,404.66653"
       id="path1819" />
    <path d="m 689.07839,246.6175 46.19306,56.1189"
       id="path1821" />
    <path d="m 921.189,611.58093 16.79748,-103.4572"
       id="path1823" />
    <path d="m 808.53368,470.02407 129.4528,38.09966"
       id="path1825" />
    <path d="M 501.25204,351.6018 464.41267,282.7014"
       id="path1831" />
    <path d="M 603.0964,288.7466 501.25204,351.6018"
       id="path1833" />
    <path d="M 537.31053,226.8723 501.25204,351.6018"
       id="path1835" />
    <path d="M 460.85668,192.3792 318.00681,235.7623"
       id="path1841" />
    <path d="m 312.39162,288.7466 5.61519,-52.9843"
       id="path1843" />
    <path d="M 349.36422,377.76345 312.39162,288.7466"
       id="path1845" />
    <path d="M 280.24154,368.39925 312.39162,288.7466"
       id="path1849" />
    <path d="m 349.36422,377.76345 -69.12268,-9.3642"
       id="path1851" />
    <path d="m 237.83703,282.7014 42.40451,85.69785"
       id="path1855" />
    <path d="m 166.06598,311.1351 71.77105,-28.4337"
       id="path1861" />
    <path d="M 280.24154,368.39925 166.06598,311.1351"
       id="path1863" />
    <path d="M 182.09994,429.48099 166.06598,311.1351"
       id="path1869" />
    <path d="m 280.24154,368.39925 -98.1416,61.08174"
       id="path1871" />
    <path d="M 259.97916,508.12373 182.09994,429.48099"
       id="path1875" />
    <path d="m 209.51136,561.55475 50.4678,-53.43102"
       id="path1877" />
    <path d="M 106.12952,581.09961 182.09994,429.48099"
       id="path1879" />
    <path d="M 305.96161,555.66057 259.97916,508.12373"
       id="path1881" />
    <path d="M 340.91247,508.12373 H 259.97916"
       id="path1885" />
    <path d="m 305.96161,555.66057 34.95086,-47.53684"
       id="path1887" />
    <path d="m 382.14264,453.53193 -41.23017,54.5918"
       id="path1893" />
    <path d="M 435.6336,495.64709 382.14264,453.53193"
       id="path1895" />
    <path d="M 397.79484,544.39101 435.6336,495.64709"
       id="path1899" />
    <path d="m 382.14264,453.53193 15.6522,90.85908"
       id="path1901" />
    <path d="m 340.91247,508.12373 56.88237,36.26728"
       id="path1903" />
    <path d="m 482.16399,464.60299 -46.53039,31.0441"
       id="path1907" />
    <path d="M 501.25204,351.6018 482.16399,464.60299"
       id="path1909" />
    <path d="M 456.96777,537.90108 435.6336,495.64709"
       id="path1913" />
    <path d="m 397.79484,544.39101 59.17293,-6.48993"
       id="path1915" />
    <path d="m 785.66389,537.90108 22.86979,-67.87701"
       id="path1917" />
    <path d="m 769.24817,495.64709 16.41572,42.25399"
       id="path1919" />
    <path d="m 808.53368,470.02407 -39.28551,25.62302"
       id="path1921" />
    <path d="m 726.87271,495.64709 h 42.37546"
       id="path1925" />
    <path d="m 652.04758,457.73129 74.82513,37.9158"
       id="path1929" />
    <path d="m 742.14315,404.66653 -90.09557,53.06476"
       id="path1931" />
    <path d="m 631.4325,537.90108 20.61508,-80.16979"
       id="path1935" />
    <path d="m 543.24573,495.64709 88.18677,42.25399"
       id="path1939" />
    <path d="m 482.16399,464.60299 61.08174,31.0441"
       id="path1941" />
    <path d="m 735.27145,585.23943 50.39244,-47.33835"
       id="path1945" />
    <path d="m 726.87271,495.64709 8.39874,89.59234"
       id="path1947" />
    <path d="m 695.18656,589.4388 40.08489,-4.19937"
       id="path1951" />
    <path d="M 714.17678,671.60291 695.18656,589.4388"
       id="path1953" />
    <path d="m 631.4325,537.90108 63.75406,51.53772"
       id="path1955" />
    <path d="M 726.87271,495.64709 631.4325,537.90108"
       id="path1957" />
    <path d="m 668.84506,655.86519 45.33172,15.73772"
       id="path1963" />
    <path d="m 695.18656,589.4388 -26.3415,66.42639"
       id="path1965" />
    <path d="m 735.27145,585.23943 77.87922,93.12728"
       id="path1967" />
    <path d="m 514.61367,517.66775 28.63206,-22.02066"
       id="path1973" />
    <path d="m 456.96777,537.90108 57.6459,-20.23333"
       id="path1975" />
    <path d="m 507.36021,551.64447 7.25346,-33.97672"
       id="path1981" />
    <path d="m 456.96777,537.90108 50.39244,13.74339"
       id="path1983" />
    <path d="m 568.82371,581.09961 -61.4635,-29.45514"
       id="path1987" />
    <path d="m 631.4325,537.90108 -62.60879,43.19853"
       id="path1989" />
    <path d="m 537.31053,645.14496 31.51318,-64.04535"
       id="path1991" />
    <path d="M 668.84506,655.86519 537.31053,645.14496"
       id="path1993" />
    <path d="m 456.96777,637.10744 80.34276,8.03752"
       id="path1995" />
    <path d="m 397.79484,678.36671 59.17293,-41.25927"
       id="path1997" />
    <path d="m 325.64203,611.58093 72.15281,66.78578"
       id="path2001" />
    <path d="m 305.96161,555.66057 19.68042,55.92036"
       id="path2003" />
    <path d="m 231.34709,611.58093 h 94.29494"
       id="path2005" />
    <path d="m 209.51136,561.55475 21.83573,50.02618"
       id="path2007" />
    <path d="m 193.43632,637.10744 37.91077,-25.52651"
       id="path2009" />
    <path d="m 249.67162,665.02745 -56.2353,-27.92001"
       id="path2011" />
    <path d="m 231.34709,611.58093 18.32453,53.44652"
       id="path2013" />
    <path d="m 325.64203,611.58093 -75.97041,53.44652"
       id="path2015" />
    <path d="m 243.56344,748.63309 6.10818,-83.60564"
       id="path2021" />
    <path d="m 198.51566,834.14752 45.04778,-85.51443"
       id="path2023" />
    <path d="M 295.24491,808.56954 243.56344,748.63309"
       id="path2027" />
    <path d="m 312.39162,873.41054 -17.14671,-64.841"
       id="path2029" />
    <path d="m 329.45964,764.66704 -34.21473,43.9025"
       id="path2033" />
    <path d="m 243.56344,748.63309 85.8962,16.03395"
       id="path2035" />
    <path d="m 427.95395,753.59598 -98.49431,11.07106"
       id="path2041" />
    <path d="m 397.79484,678.36671 30.15911,75.22927"
       id="path2043" />
    <path d="M 312.39162,918.13492 V 873.41054"
       id="path2045" />
    <path d="m 295.24491,987.00749 17.14671,-68.87257"
       id="path2047" />
    <path d="m 266.84567,883.5914 45.54595,34.54352"
       id="path2049" />
    <path d="m 374.12566,1043.3525 -7.61473,60.467"
       id="path2053" />
    <path d="m 427.95395,1050.2242 -53.82829,-6.8717"
       id="path2055" />
    <path d="m 366.51093,1103.8195 61.44302,-53.5953"
       id="path2057" />
    <path d="m 469.56588,1099.4713 -41.61193,-49.2471"
       id="path2059" />
    <path d="m 456.96777,1168.6554 12.59811,-69.1841"
       id="path2061" />
    <path d="m 548.20862,1103.8195 -78.64274,-4.3482"
       id="path2065" />
    <path d="m 555.66057,1168.6554 -7.45195,-64.8359"
       id="path2067" />
    <path d="m 519.57656,1014.3387 28.63206,89.4808"
       id="path2071" />
    <path d="m 584.05981,987.00749 -64.48325,27.33121"
       id="path2073" />
    <path d="m 616.16206,1099.4713 -67.95344,4.3482"
       id="path2075" />
    <path d="m 427.95395,1050.2242 91.62261,-35.8855"
       id="path2077" />
    <path d="M 366.51093,897.13807 312.39162,873.41054"
       id="path2081" />
    <path d="m 312.39162,918.13492 54.11931,-20.99685"
       id="path2083" />
    <path d="m 493.23506,733.55769 -65.28111,20.03829"
       id="path2105" />
    <path d="m 530.64762,799.78904 -102.69367,8.7805"
       id="path2111" />
    <path d="m 493.23506,733.55769 37.41256,66.23135"
       id="path2113" />
    <path d="M 568.82371,733.55769 H 493.23506"
       id="path2115" />
    <path d="m 530.64762,799.78904 38.17609,-66.23135"
       id="path2117" />
    <path d="M 598.2193,791.00854 568.82371,733.55769"
       id="path2123" />
    <path d="m 530.64762,799.78904 67.57168,-8.7805"
       id="path2125" />
    <path d="M 623.79728,748.63309 598.2193,791.00854"
       id="path2127" />
    <path d="m 568.82371,733.55769 54.97357,15.0754"
       id="path2129" />
    <path d="m 677.2438,753.59598 -53.44652,-4.96289"
       id="path2131" />
    <path d="M 731.07208,777.49613 677.2438,753.59598"
       id="path2133" />
    <path d="M 689.07839,816.20476 677.2438,753.59598"
       id="path2135" />
    <path d="M 661.97337,834.14752 598.2193,791.00854"
       id="path2137" />
    <path d="m 677.2438,753.59598 36.93298,-81.99307"
       id="path2139" />
    <path d="M 561.57025,854.76261 530.64762,799.78904"
       id="path2145" />
    <path d="M 631.4325,902.86448 561.57025,854.76261"
       id="path2147" />
    <path d="M 561.57025,918.13492 631.4325,902.86448"
       id="path2149" />
    <path d="m 482.16399,889.50285 79.40626,-34.74024"
       id="path2153" />
    <path d="M 561.57025,918.13492 482.16399,889.50285"
       id="path2155" />
    <path d="m 451.62312,933.78711 30.54087,-44.28426"
       id="path2161" />
    <path d="M 561.57025,918.13492 V 854.76261"
       id="path2163" />
    <path d="M 451.62312,933.78711 366.51093,897.13807"
       id="path2165" />
    <path d="M 519.57656,1014.3387 451.62312,933.78711"
       id="path2167" />
    <path d="m 397.79484,544.39101 59.17293,92.71643"
       id="path2169" />
    <path d="m 537.31053,645.14496 31.51318,88.41273"
       id="path2171" />
    <path d="m 623.79728,748.63309 45.04778,-92.7679"
       id="path2173" />
    <path d="M 849.0362,408.8659 769.24817,328.3144"
       id="path2175" />
    <path d="M 382.14264,453.53193 349.36422,377.76345"
       id="path2177" />
    <path d="m 482.16399,464.60299 32.44968,53.06476"
       id="path2179" />
    <path d="M 209.51136,561.55475 182.09994,429.48099"
       id="path2181" />
    <path d="m 243.56344,748.63309 -83.8847,-63.83636"
       id="path2183" />
    <path d="M 148.42621,777.49613 84.750915,764.66704"
       id="path2185" />
    <path d="m 152.70435,860.87078 -4.27814,-83.37465"
       id="path2187" />
    <path d="M 374.12566,1043.3525 295.24491,987.00749"
       id="path2189" />
    <path d="m 561.57025,918.13492 22.48956,68.87257"
       id="path2191" />
    <path d="M 482.16399,889.50285 427.95395,808.56954"
       id="path2193" />
    <path d="m 329.45964,764.66704 68.3352,-86.30033"
       id="path2195" />
    <path d="M 813.15067,678.36671 785.66389,537.90108"
       id="path2197" />
    <path d="M 921.189,611.58093 813.15067,678.36671"
       id="path2199" />
    <path d="M 937.98648,508.12373 893.32046,377.76345"
       id="path2201" />
    <path d="m 652.04758,457.73129 -108.80185,37.9158"
       id="path2203" />
    <path d="m 427.95395,808.56954 -61.44302,88.56853"
       id="path1699" />
  </g>
  <g id="linesHighlight" style="fill:none;stroke:#EA43D5;stroke-width:2;stroke-linecap:round;stroke-linejoin:round;stroke-miterlimit:4">
    <path d="M 464.41267,282.7014 808.53368,470.02407"
       id="path1279" />
    <path d="M 858.12971,721.8933 714.17678,671.60291"
       id="path1289" />
    <path d="M 808.53368,470.02407 858.12971,721.8933"
       id="path1291" />
    <path d="m 714.17678,671.60291 94.3569,-201.57884"
       id="path1293" />
    <path d="m 555.66057,1168.6554 83.05438,37.5085"
       id="path1303" />
    <path d="M 584.05981,987.00749 555.66057,1168.6554"
       id="path1309" />
    <path d="m 366.51093,1103.8195 189.14964,64.8359"
       id="path1315" />
    <path d="M 295.24491,987.00749 280.24154,1063.096"
       id="path1323" />
    <path d="M 366.51093,1103.8195 295.24491,987.00749"
       id="path1325" />
    <path d="m 266.84567,883.5914 28.39924,103.41609"
       id="path1335" />
    <path d="M 312.39162,873.41054 266.84567,883.5914"
       id="path1337" />
    <path d="M 555.66057,1168.6554 312.39162,873.41054"
       id="path1339" />
    <path d="M 349.36422,377.76345 464.41267,282.7014"
       id="path1345" />
    <path d="M 435.6336,495.64709 349.36422,377.76345"
       id="path1351" />
    <path d="M 305.96161,555.66057 435.6336,495.64709"
       id="path1357" />
    <path d="M 349.36422,377.76345 305.96161,555.66057"
       id="path1359" />
    <path d="m 209.51136,561.55475 96.45025,-5.89418"
       id="path1365" />
    <path d="m 193.43632,637.10744 16.07504,-75.55269"
       id="path1371" />
    <path d="m 141.99619,645.14496 51.44013,-8.03752"
       id="path1377" />
    <path d="M 159.67874,684.79673 141.99619,645.14496"
       id="path1383" />
    <path d="m 193.43632,637.10744 -33.75758,47.68929"
       id="path1385" />
    <path d="m 118.9553,678.36671 23.04089,-33.22175"
       id="path1391" />
    <path d="M 159.67874,684.79673 118.9553,678.36671"
       id="path1393" />
    <path d="M 71.801848,698.72843 118.9553,678.36671"
       id="path1399" />
    <path d="M 126.99282,733.55769 71.801848,698.72843"
       id="path1405" />
    <path d="m 159.67874,684.79673 -32.68592,48.76096"
       id="path1407" />
    <path d="m 33.221751,777.49613 38.580097,-78.7677"
       id="path1413" />
    <path d="M 148.42621,777.49613 126.99282,733.55769"
       id="path1417" />
    <path d="M 33.221751,777.49613 H 148.42621"
       id="path1419" />
    <path d="M 266.84567,883.5914 33.221751,777.49613"
       id="path1421" />
    <path d="M 312.39162,873.41054 148.42621,777.49613"
       id="path1423" />
  </g>
  <g id="points" style="fill:#43d5ea;stroke:none">
   <circle
      id="130750039039"
      cx="822.65021"
      cy="192.77979"
      r="5" />
   <circle
      id="130730088088"
      cx="785.64453"
      cy="161.41075"
      r="5" />
   <circle
      id="130030000000"
      cx="677.20087"
      cy="198.17134"
      r="5" />
   <circle
      id="130720043043"
      cx="689.07831"
      cy="246.66145"
      r="5" />
   <circle
      id="130740087087"
      cx="609.20087"
      cy="235.92628"
      r="5" />
   <circle
      id="010030000000"
      cx="537.20087"
      cy="226.94606"
      r="5" />
   <circle
      id="010040000000"
      cx="460.95581"
      cy="192.94606"
      r="5" />
   <circle
      id="010020000000"
      cx="472.34317"
      cy="154.17134"
      r="5" />
   <circle
      id="010590075075"
      cx="416.09811"
      cy="121.15163"
      r="5" />
   <circle
      id="010010000000"
      cx="395.20087"
      cy="59.764305"
      r="5" />
   <circle
      id="033520011011"
      cx="318.05856"
      cy="235.96584"
      r="5" />
   <circle
      id="040120000000"
      cx="312.42615"
      cy="288.74054"
      r="5" />
   <circle
      id="034050000000"
      cx="237.81351"
      cy="282.74054"
      r="5" />
   <circle
      id="034020000000"
      cx="166.05856"
      cy="311.2702"
      r="5" />
   <circle
      id="034030000000"
      cx="280.30362"
      cy="368.53503"
      r="5" />
   <circle
      id="130040000000"
      cx="603.07831"
      cy="288.70099"
      r="5" />
   <circle
      id="130710156156"
      cx="735.20087"
      cy="302.78397"
      r="5" />
   <circle
      id="130710107107"
      cx="785.6911"
      cy="293.68121"
      r="5" />
   <circle
      id="130710110110"
      cx="769.20087"
      cy="328.29385"
      r="5" />
   <circle
      id="033550022022"
      cx="501.20084"
      cy="351.72076"
      r="5" />
   <circle
      id="120730532532"
      cx="893.32343"
      cy="377.80374"
      r="5" />
   <circle
      id="120600052052"
      cx="848.95575"
      cy="408.94604"
      r="5" />
   <circle
      id="120680320320"
      cx="742.18134"
      cy="404.82352"
      r="5" />
   <circle
      id="150900535535"
      cx="652.05878"
      cy="457.68121"
      r="5" />
   <circle
      id="031030000000"
      cx="543.32343"
      cy="495.55869"
      r="5" />
   <circle
      id="033510006006"
      cx="482.05859"
      cy="464.53891"
      r="5" />
   <circle
      id="034540035035"
      cx="182.30362"
      cy="429.39273"
      r="5" />
   <circle
      id="120510000000"
      cx="726.79413"
      cy="495.55869"
      r="5" />
   <circle
      id="120540000000"
      cx="769.1618"
      cy="495.55869"
      r="5" />
   <circle
      id="120720232232"
      cx="785.65204"
      cy="537.92639"
      r="5" />
   <circle
      id="150030000000"
      cx="631.52948"
      cy="537.92639"
      r="5" />
   <circle
      id="031010000000"
      cx="514.54901"
      cy="517.68127"
      r="5" />
   <circle
      id="032560022022"
      cx="382.18112"
      cy="453.68121"
      r="5" />
   <circle
      id="057700024024"
      cx="340.91629"
      cy="508.0488"
      r="5" />
   <circle
      id="034040000000"
      cx="259.93607"
      cy="508.0488"
      r="5" />
   <circle
      id="032520006006"
      cx="397.77399"
      cy="544.53906"
      r="5" />
   <circle
      id="032540021021"
      cx="456.99927"
      cy="537.92627"
      r="5" />
   <circle
      id="031020000000"
      cx="507.36685"
      cy="551.55859"
      r="5" />
   <circle
      id="150850135135"
      cx="568.87659"
      cy="581.06836"
      r="5" />
   <circle
      id="160620041041"
      cx="537.24426"
      cy="645.06836"
      r="5" />
   <circle
      id="150010000000"
      cx="695.1618"
      cy="589.55872"
      r="5" />
   <circle
      id="150910375375"
      cx="735.28436"
      cy="585.3136"
      r="5" />
   <circle
      id="150020000000"
      cx="668.91669"
      cy="655.92639"
      r="5" />
   <circle
      id="031590016016"
      cx="456.99921"
      cy="637.06836"
      r="5" />
   <circle
      id="066110000000"
      cx="397.8569"
      cy="678.45557"
      r="5" />
   <circle
      id="057740032032"
      cx="325.61185"
      cy="611.80371"
      r="5" />
   <circle
      id="059150000000"
      cx="231.36679"
      cy="611.80371"
      r="5" />
   <circle
      id="059580004004"
      cx="249.61185"
      cy="665.19092"
      r="5" />
   <circle
      id="066320002002"
      cx="427.97943"
      cy="753.72021"
      r="5" />
   <circle
      id="065340014014"
      cx="329.48932"
      cy="764.8623"
      r="5" />
   <circle
      id="059700040040"
      cx="243.48932"
      cy="748.73975"
      r="5" />
   <circle
      id="065320023023"
      cx="295.24426"
      cy="808.61719"
      r="5" />
   <circle
      id="071110000000"
      cx="198.50909"
      cy="834.12695"
      r="5" />
   <circle
      id="071355001020"
      cx="152.75415"
      cy="860.73975"
      r="5" />
   <circle
      id="055540008008"
      cx="106.10201"
      cy="581.19092"
      r="5" />
   <circle
      id="053580008008"
      cx="84.754105"
      cy="764.61719"
      r="5" />
   <circle
      id="160560000000"
      cx="493.36679"
      cy="733.59766"
      r="5" />
   <circle
      id="160510000000"
      cx="568.99915"
      cy="733.59766"
      r="5" />
   <circle
      id="160530000000"
      cx="623.7345"
      cy="748.45557"
      r="5" />
   <circle
      id="160730077077"
      cx="598.22473"
      cy="791.06836"
      r="5" />
   <circle
      id="160520000000"
      cx="677.24426"
      cy="753.59766"
      r="5" />
   <circle
      id="146270230230"
      cx="813.1618"
      cy="678.53918"
      r="5" />
   <circle
      id="160540000000"
      cx="530.59241"
      cy="799.92627"
      r="5" />
   <circle
      id="066310009009"
      cx="427.97977"
      cy="808.53906"
      r="5" />
   <circle
      id="094630000000"
      cx="561.48938"
      cy="854.82324"
      r="5" />
   <circle
      id="094640000000"
      cx="661.97961"
      cy="834.29395"
      r="5" />
   <circle
      id="145230320320"
      cx="689.08264"
      cy="816.17139"
      r="5" />
   <circle
      id="145240330330"
      cx="731.1217"
      cy="777.59766"
      r="5" />
   <circle
      id="145110000000"
      cx="777.61194"
      cy="757.84277"
      r="5" />
   <circle
      id="146250240240"
      cx="915.7746"
      cy="665.06848"
      r="5" />
   <circle
      id="146260110110"
      cx="984.14227"
      cy="694.45569"
      r="5" />
   <circle
      id="120520000000"
      cx="921.03925"
      cy="611.68127"
      r="5" />
   <circle
      id="120670120120"
      cx="950.91669"
      cy="544.41663"
      r="5" />
   <circle
      id="120530000000"
      cx="937.89716"
      cy="508.04904"
      r="5" />
   <circle
      id="094620000000"
      cx="631.48938"
      cy="903.0293"
      r="5" />
   <circle
      id="093630000000"
      cx="695.24426"
      cy="947.92627"
      r="5" />
   <circle
      id="093610000000"
      cx="661.97961"
      cy="986.90674"
      r="5" />
   <circle
      id="094610000000"
      cx="561.61194"
      cy="918.13232"
      r="5" />
   <circle
      id="096620000000"
      cx="482.10202"
      cy="889.55859"
      r="5" />
   <circle
      id="096610000000"
      cx="366.59213"
      cy="897.19092"
      r="5" />
   <circle
      id="096630000000"
      cx="451.61191"
      cy="933.80371"
      r="5" />
   <circle
      id="064110000000"
      cx="312.34708"
      cy="918.08789"
      r="5" />
   <circle
      id="071330006006"
      cx="214.99921"
      cy="918.12695"
      r="5" />
   <circle
      id="072110000000"
      cx="93.244278"
      cy="954.00439"
      r="5" />
   <circle
      id="100430114114"
      cx="148.46956"
      cy="998.37207"
      r="5" />
   <circle
      id="073120000000"
      cx="215.0822"
      cy="992.98486"
      r="5" />
   <circle
      id="100410100100"
      cx="126.95969"
      cy="1032.6172"
      r="5" />
   <circle
      id="073170000000"
      cx="198.59209"
      cy="1050.2495"
      r="5" />
   <circle
      id="073130000000"
      cx="249.69485"
      cy="1032.6172"
      r="5" />
   <circle
      id="081210000000"
      cx="374.18497"
      cy="1043.3525"
      r="5" />
   <circle
      id="082310000000"
      cx="312.43002"
      cy="1087.7202"
      r="5" />
   <circle
      id="082110000000"
      cx="259.93991"
      cy="1108.9849"
      r="5" />
   <circle
      id="081275009076"
      cx="427.93991"
      cy="1050.2104"
      r="5" />
   <circle
      id="095610000000"
      cx="519.57227"
      cy="1014.3329"
      r="5" />
   <circle
      id="093720116116"
      cx="747.85706"
      cy="1032.6616"
      r="5" />
   <circle
      id="093620000000"
      cx="695.24426"
      cy="1057.397"
      r="5" />
   <circle
      id="092710119119"
      cx="785.61194"
      cy="1087.6421"
      r="5" />
   <circle
      id="092620000000"
      cx="822.59241"
      cy="1134.5"
      r="5" />
   <circle
      id="092610000000"
      cx="698.96008"
      cy="1139.6421"
      r="5" />
   <circle
      id="091610000000"
      cx="616.22473"
      cy="1099.5195"
      r="5" />
   <circle
      id="097790131131"
      cx="548.10217"
      cy="1104.0098"
      r="5" />
   <circle
      id="081365001088"
      cx="469.61206"
      cy="1099.5195"
      r="5" />
   <circle
      id="091780124124"
      cx="652.10217"
      cy="1158.2549"
      r="5" />
   <circle
      id="084210000000"
      cx="456.99942"
      cy="1168.7842"
      r="5" />
   <circle
      id="084150061061"
      cx="374.14172"
      cy="1154.4165"
      r="5" />
   <circle
      id="091710112112"
      cx="754.71497"
      cy="1206.1323"
      r="5" />
   <circle
      id="091630000000"
      cx="689.08264"
      cy="1253.0293"
      r="5" />
   <circle
      id="091800117117"
      cx="579.57288"
      cy="1310.6616"
      r="5" />
   <circle
      id="097620000000"
      cx="519.57288"
      cy="1253.0293"
      r="5" />
   <circle
      id="097630000000"
      cx="482.06299"
      cy="1277.6421"
      r="5" />
   <circle
      id="097640000000"
      cx="469.57288"
      cy="1233.5195"
      r="5" />
   <circle
      id="084375006104"
      cx="374.18552"
      cy="1217.0293"
      r="5" />
   <circle
      id="083175010096"
      cx="231.4498"
      cy="1154.4946"
      r="5" />
   <circle
      id="083265004074"
      cx="289.04321"
      cy="1223.5195"
      r="5" />
   <circle
      id="083110000000"
      cx="215.04321"
      cy="1233.5195"
      r="5" />
   <circle
      id="083355004043"
      cx="349.4108"
      cy="1286.5"
      r="5" />
  </g>
  <g id="pointsHighlight" style="fill:#EA43D5;stroke:#EA43D5;stroke-width:10">
   <circle
      id="110000000000"
      cx="808.58807"
      cy="470.08835"
      r="5" />
   <circle
      id="020000000000"
      cx="464.4657"
      cy="282.70099"
      r="5" />
   <circle
      id="040110000000"
      cx="349.44592"
      cy="377.76031"
      r="5" />
   <circle
      id="032410001001"
      cx="435.69101"
      cy="495.68121"
      r="5" />
   <circle
      id="057110000000"
      cx="305.8569"
      cy="555.68115"
      r="5" />
   <circle
      id="055150000000"
      cx="209.48932"
      cy="561.55859"
      r="5" />
   <circle
      id="059130000000"
      cx="193.36679"
      cy="637.06836"
      r="5" />
   <circle
      id="051130000000"
      cx="141.97943"
      cy="645.19092"
      r="5" />
   <circle
      id="051240000000"
      cx="159.73438"
      cy="684.82324"
      r="5" />
   <circle
      id="051110000000"
      cx="118.87665"
      cy="678.45557"
      r="5" />
   <circle
      id="051160000000"
      cx="71.773827"
      cy="698.57812"
      r="5" />
   <circle
      id="053150000000"
      cx="127.16116"
      cy="733.68115"
      r="5" />
   <circle
      id="053140000000"
      cx="148.42599"
      cy="777.55859"
      r="5" />
   <circle
      id="053340002002"
      cx="33.283737"
      cy="777.55859"
      r="5" />
   <circle
      id="147130000000"
      cx="714.18134"
      cy="671.68127"
      r="5" />
   <circle
      id="146120000000"
      cx="858.18134"
      cy="721.92639"
      r="5" />
   <circle
      id="064120000000"
      cx="312.34708"
      cy="873.35254"
      r="5" />
   <circle
      id="064140000000"
      cx="266.83719"
      cy="883.59766"
      r="5" />
   <circle
      id="082220000000"
      cx="295.20474"
      cy="986.98486"
      r="5" />
   <circle
      id="082120000000"
      cx="280.3075"
      cy="1063.1074"
      r="5" />
   <circle
      id="081110000000"
      cx="366.55255"
      cy="1103.7593"
      r="5" />
   <circle
      id="095640000000"
      cx="584.18506"
      cy="986.94568"
      r="5" />
   <circle
      id="091620000000"
      cx="638.71497"
      cy="1206.1323"
      r="5" />
   <circle
      id="097610000000"
      cx="555.69543"
      cy="1168.6226"
      r="5" />
  </g>
</svg>
